<?xml version="1.0" encoding="UTF-8"?>
<svg xmlns="http://www.w3.org/2000/svg" viewBox="0 0 180 180">
  <defs>
    <style>
      .cls-1 {
        fill: #999;
      }

      .cls-1, .cls-2, .cls-3, .cls-4, .cls-5, .cls-6, .cls-7, .cls-8, .cls-9, .cls-10, .cls-11, .cls-12, .cls-13, .cls-14, .cls-15, .cls-16, .cls-17, .cls-18, .cls-19, .cls-20, .cls-21, .cls-22, .cls-23, .cls-24, .cls-25, .cls-26, .cls-27, .cls-28, .cls-29, .cls-30, .cls-31, .cls-32, .cls-33, .cls-34, .cls-35, .cls-36, .cls-37, .cls-38, .cls-39, .cls-40, .cls-41, .cls-42, .cls-43, .cls-44, .cls-45, .cls-46, .cls-47, .cls-48, .cls-49, .cls-50, .cls-51, .cls-52, .cls-53, .cls-54, .cls-55, .cls-56, .cls-57, .cls-58, .cls-59, .cls-60, .cls-61, .cls-62, .cls-63, .cls-64, .cls-65, .cls-66, .cls-67, .cls-68, .cls-69, .cls-70, .cls-71, .cls-72, .cls-73, .cls-74, .cls-75, .cls-76, .cls-77, .cls-78, .cls-79, .cls-80, .cls-81, .cls-82, .cls-83, .cls-84, .cls-85, .cls-86, .cls-87, .cls-88, .cls-89, .cls-90, .cls-91, .cls-92, .cls-93, .cls-94, .cls-95, .cls-96, .cls-97, .cls-98, .cls-99, .cls-100, .cls-101, .cls-102, .cls-103, .cls-104 {
        stroke-width: 0px;
      }

      .cls-2 {
        fill: #a3a3a3;
      }

      .cls-3 {
        fill: #e4e4e4;
      }

      .cls-4 {
        fill: #bdbdbd;
      }

      .cls-5 {
        fill: #b6b6b6;
      }

      .cls-6 {
        fill: #c1c1c1;
      }

      .cls-7 {
        fill: #45a049;
      }

      .cls-8 {
        fill: #fefefe;
      }

      .cls-9 {
        fill: #cdcdcd;
      }

      .cls-10 {
        fill: #dcdcdc;
      }

      .cls-11 {
        fill: #b2b2b2;
      }

      .cls-12 {
        fill: #f3f3f3;
      }

      .cls-13 {
        fill: #c8c8c8;
      }

      .cls-14 {
        fill: #e1e1e1;
      }

      .cls-15 {
        fill: #bababa;
      }

      .cls-16 {
        fill: #ececec;
      }

      .cls-17 {
        fill: #e6e6e6;
      }

      .cls-105 {
        isolation: isolate;
      }

      .cls-18 {
        fill: #e5e5e5;
      }

      .cls-19 {
        fill: #f7f7f7;
      }

      .cls-20 {
        fill: #e3e3e3;
      }

      .cls-21 {
        fill: #e0e0e0;
      }

      .cls-22 {
        fill: #9c9c9c;
      }

      .cls-23 {
        fill: #c2c2c2;
      }

      .cls-24 {
        fill: #9e9e9e;
      }

      .cls-25 {
        fill: #a7a7a7;
      }

      .cls-26 {
        fill: #c4c4c4;
      }

      .cls-27 {
        fill: #bbb;
      }

      .cls-28 {
        fill: #f5f5f5;
      }

      .cls-29 {
        fill: #b7b7b7;
      }

      .cls-30 {
        fill: #f0f0f0;
      }

      .cls-31 {
        fill: #dfdfdf;
      }

      .cls-32 {
        fill: #b8b8b8;
      }

      .cls-33 {
        fill: #9b9b9b;
      }

      .cls-34 {
        fill: #aeaeae;
      }

      .cls-35 {
        fill: #e9e9e9;
      }

      .cls-36 {
        fill: #ddd;
      }

      .cls-37 {
        fill: #c7c7c7;
      }

      .cls-38 {
        fill: #b3b3b3;
      }

      .cls-39 {
        fill: #b9b9b9;
      }

      .cls-40 {
        fill: #bfbfbf;
      }

      .cls-41 {
        fill: #d2d2d2;
      }

      .cls-42 {
        fill: #e7e7e7;
      }

      .cls-43 {
        fill: #ccc;
      }

      .cls-44 {
        fill: #bebebe;
      }

      .cls-45 {
        fill: #dadada;
      }

      .cls-46 {
        fill: #f6f6f6;
      }

      .cls-47 {
        fill: #a1a1a1;
      }

      .cls-48 {
        fill: #fff;
      }

      .cls-49 {
        fill: #d4d4d4;
      }

      .cls-50 {
        fill: #ededed;
      }

      .cls-51 {
        fill: #a0a0a0;
      }

      .cls-52 {
        fill: #9f9f9f;
      }

      .cls-53 {
        fill: #f8f8f8;
      }

      .cls-54 {
        fill: #9d9d9d;
      }

      .cls-55 {
        fill: #b1b1b1;
      }

      .cls-56 {
        fill: #d5d5d5;
      }

      .cls-57 {
        fill: #b0b0b0;
      }

      .cls-58 {
        fill: #dedede;
      }

      .cls-59 {
        fill: #fafafa;
      }

      .cls-60 {
        fill: #e2e2e2;
      }

      .cls-61 {
        fill: #d3d3d3;
      }

      .cls-62 {
        fill: #a2a2a2;
      }

      .cls-63 {
        fill: #eee;
      }

      .cls-64 {
        fill: #cbcbcb;
      }

      .cls-65 {
        fill: #bcbcbc;
      }

      .cls-66 {
        fill: #d1d1d1;
      }

      .cls-67 {
        fill: #b5b5b5;
      }

      .cls-68 {
        fill: #c3c3c3;
      }

      .cls-69 {
        fill: #d9d9d9;
      }

      .cls-70 {
        fill: #a5a5a5;
      }

      .cls-71 {
        fill: #a8a8a8;
      }

      .cls-72 {
        fill: #f4f4f4;
      }

      .cls-73 {
        fill: #a6a6a6;
      }

      .cls-74 {
        fill: #acacac;
      }

      .cls-75 {
        fill: #9a9a9a;
      }

      .cls-76 {
        fill: silver;
      }

      .cls-77 {
        fill: #dbdbdb;
      }

      .cls-78 {
        fill: #f1f1f1;
      }

      .cls-79 {
        fill: #ebebeb;
      }

      .cls-80 {
        fill: #c6c6c6;
      }

      .cls-81 {
        fill: #c5c5c5;
      }

      .cls-82 {
        fill: #d7d7d7;
      }

      .cls-83 {
        fill: #d0d0d0;
      }

      .cls-84 {
        fill: #a9a9a9;
      }

      .cls-85 {
        fill: #f9f9f9;
      }

      .cls-86 {
        fill: #d6d6d6;
      }

      .cls-87 {
        fill: #fbfbfb;
      }

      .cls-88 {
        fill: #cfcfcf;
      }

      .cls-89 {
        fill: #e8e8e8;
      }

      .cls-90 {
        fill: #c9c9c9;
      }

      .cls-91 {
        fill: #fdfdfd;
      }

      .cls-92 {
        fill: #cacaca;
      }

      .cls-93 {
        fill: #b4b4b4;
      }

      .cls-94 {
        fill: #afafaf;
      }

      .cls-95 {
        fill: #ababab;
      }

      .cls-96 {
        fill: #eaeaea;
      }

      .cls-97 {
        fill: #fcfcfc;
      }

      .cls-106 {
        mix-blend-mode: multiply;
      }

      .cls-98 {
        fill: #cecece;
      }

      .cls-99 {
        fill: #f2f2f2;
      }

      .cls-100 {
        fill: #aaa;
      }

      .cls-101 {
        fill: #d8d8d8;
      }

      .cls-102 {
        fill: #efefef;
      }

      .cls-103 {
        fill: #a4a4a4;
      }

      .cls-104 {
        fill: #adadad;
      }
    </style>
  </defs>
  <g class="cls-105">
    <g id="Layer_1" data-name="Layer 1">
      <path class="cls-1" d="M91.1,164.19c-41.2,0-74.71-33.52-74.71-74.71S49.9,14.76,91.1,14.76s74.71,33.52,74.71,74.71-33.52,74.71-74.71,74.71ZM91.1,15.85c-40.59,0-73.62,33.03-73.62,73.62s33.03,73.62,73.62,73.62,73.62-33.03,73.62-73.62S131.69,15.85,91.1,15.85Z"/>
      <path class="cls-43" d="M91.1,175.31c-22.93,0-44.48-8.93-60.7-25.14-16.21-16.21-25.14-37.77-25.14-60.7S14.19,44.99,30.4,28.77C46.61,12.56,68.17,3.63,91.1,3.63s44.48,8.93,60.7,25.14c16.21,16.21,25.14,37.77,25.14,60.7s-8.93,44.48-25.14,60.7c-16.21,16.21-37.77,25.14-60.7,25.14ZM91.1,4.73C44.37,4.73,6.35,42.74,6.35,89.47s38.02,84.74,84.74,84.74,84.74-38.02,84.74-84.74S137.82,4.73,91.1,4.73Z"/>
      <g class="cls-106">
        <circle class="cls-48" cx="98.48" cy="96.74" r="58.68"/>
        <circle class="cls-8" cx="98.41" cy="96.67" r="58.66"/>
        <circle class="cls-91" cx="98.34" cy="96.6" r="58.64"/>
        <circle class="cls-97" cx="98.27" cy="96.53" r="58.62"/>
        <circle class="cls-87" cx="98.2" cy="96.46" r="58.61"/>
        <circle class="cls-59" cx="98.13" cy="96.39" r="58.59"/>
        <circle class="cls-85" cx="98.06" cy="96.32" r="58.57"/>
        <circle class="cls-53" cx="97.99" cy="96.25" r="58.55"/>
        <circle class="cls-19" cx="97.92" cy="96.18" r="58.53"/>
        <circle class="cls-46" cx="97.85" cy="96.11" r="58.51"/>
        <circle class="cls-28" cx="97.78" cy="96.04" r="58.49"/>
        <circle class="cls-72" cx="97.71" cy="95.97" r="58.48"/>
        <circle class="cls-12" cx="97.64" cy="95.9" r="58.46"/>
        <circle class="cls-99" cx="97.57" cy="95.83" r="58.44"/>
        <circle class="cls-78" cx="97.5" cy="95.76" r="58.42"/>
        <circle class="cls-30" cx="97.43" cy="95.69" r="58.4"/>
        <circle class="cls-102" cx="97.36" cy="95.62" r="58.38"/>
        <circle class="cls-63" cx="97.29" cy="95.55" r="58.36"/>
        <circle class="cls-50" cx="97.22" cy="95.48" r="58.35"/>
        <circle class="cls-16" cx="97.15" cy="95.4" r="58.33"/>
        <circle class="cls-79" cx="97.08" cy="95.33" r="58.31"/>
        <circle class="cls-96" cx="97.01" cy="95.26" r="58.29"/>
        <circle class="cls-35" cx="96.94" cy="95.19" r="58.27"/>
        <circle class="cls-89" cx="96.87" cy="95.12" r="58.25"/>
        <circle class="cls-42" cx="96.8" cy="95.05" r="58.23"/>
        <circle class="cls-17" cx="96.73" cy="94.98" r="58.22"/>
        <circle class="cls-18" cx="96.66" cy="94.91" r="58.2"/>
        <circle class="cls-3" cx="96.59" cy="94.84" r="58.18"/>
        <circle class="cls-20" cx="96.52" cy="94.77" r="58.16"/>
        <circle class="cls-60" cx="96.45" cy="94.7" r="58.14"/>
        <circle class="cls-14" cx="96.38" cy="94.63" r="58.12"/>
        <circle class="cls-21" cx="96.31" cy="94.56" r="58.11"/>
        <circle class="cls-31" cx="96.24" cy="94.49" r="58.09"/>
        <circle class="cls-58" cx="96.17" cy="94.42" r="58.07"/>
        <circle class="cls-36" cx="96.1" cy="94.35" r="58.05"/>
        <circle class="cls-10" cx="96.03" cy="94.28" r="58.03"/>
        <circle class="cls-77" cx="95.96" cy="94.21" r="58.01"/>
        <circle class="cls-45" cx="95.89" cy="94.14" r="57.99"/>
        <circle class="cls-69" cx="95.82" cy="94.07" r="57.98"/>
        <circle class="cls-101" cx="95.75" cy="94" r="57.96"/>
        <circle class="cls-82" cx="95.68" cy="93.93" r="57.94"/>
        <circle class="cls-86" cx="95.61" cy="93.86" r="57.92"/>
        <circle class="cls-56" cx="95.54" cy="93.79" r="57.9"/>
        <circle class="cls-49" cx="95.47" cy="93.72" r="57.88"/>
        <circle class="cls-61" cx="95.4" cy="93.65" r="57.86"/>
        <circle class="cls-41" cx="95.33" cy="93.58" r="57.85"/>
        <circle class="cls-66" cx="95.26" cy="93.51" r="57.83"/>
        <circle class="cls-83" cx="95.19" cy="93.44" r="57.81"/>
        <circle class="cls-88" cx="95.12" cy="93.37" r="57.79"/>
        <circle class="cls-98" cx="95.05" cy="93.3" r="57.77"/>
        <circle class="cls-9" cx="94.98" cy="93.23" r="57.75"/>
        <circle class="cls-43" cx="94.91" cy="93.16" r="57.73"/>
        <circle class="cls-43" cx="94.84" cy="93.09" r="57.72"/>
        <circle class="cls-64" cx="94.77" cy="93.02" r="57.7"/>
        <circle class="cls-92" cx="94.7" cy="92.95" r="57.68"/>
        <circle class="cls-90" cx="94.63" cy="92.88" r="57.66"/>
        <circle class="cls-13" cx="94.56" cy="92.81" r="57.64"/>
        <circle class="cls-37" cx="94.49" cy="92.74" r="57.62"/>
        <circle class="cls-80" cx="94.42" cy="92.67" r="57.61"/>
        <circle class="cls-81" cx="94.35" cy="92.6" r="57.59"/>
        <circle class="cls-26" cx="94.28" cy="92.53" r="57.57"/>
        <circle class="cls-68" cx="94.2" cy="92.46" r="57.55"/>
        <circle class="cls-23" cx="94.13" cy="92.39" r="57.53"/>
        <circle class="cls-6" cx="94.06" cy="92.32" r="57.51"/>
        <circle class="cls-76" cx="93.99" cy="92.25" r="57.49"/>
        <circle class="cls-40" cx="93.92" cy="92.18" r="57.48"/>
        <circle class="cls-44" cx="93.85" cy="92.11" r="57.46"/>
        <circle class="cls-4" cx="93.78" cy="92.04" r="57.44"/>
        <circle class="cls-65" cx="93.71" cy="91.97" r="57.42"/>
        <circle class="cls-27" cx="93.64" cy="91.9" r="57.4"/>
        <circle class="cls-15" cx="93.57" cy="91.83" r="57.38"/>
        <circle class="cls-39" cx="93.5" cy="91.76" r="57.36"/>
        <circle class="cls-32" cx="93.43" cy="91.69" r="57.35"/>
        <circle class="cls-29" cx="93.36" cy="91.62" r="57.33"/>
        <circle class="cls-5" cx="93.29" cy="91.55" r="57.31"/>
        <circle class="cls-67" cx="93.22" cy="91.48" r="57.29"/>
        <circle class="cls-93" cx="93.15" cy="91.41" r="57.27"/>
        <circle class="cls-38" cx="93.08" cy="91.34" r="57.25"/>
        <circle class="cls-11" cx="93.01" cy="91.27" r="57.23"/>
        <circle class="cls-55" cx="92.94" cy="91.2" r="57.22"/>
        <circle class="cls-57" cx="92.87" cy="91.13" r="57.2"/>
        <circle class="cls-94" cx="92.8" cy="91.06" r="57.18"/>
        <circle class="cls-34" cx="92.73" cy="90.98" r="57.16"/>
        <circle class="cls-104" cx="92.66" cy="90.91" r="57.14"/>
        <circle class="cls-74" cx="92.59" cy="90.84" r="57.12"/>
        <circle class="cls-95" cx="92.52" cy="90.77" r="57.11"/>
        <circle class="cls-100" cx="92.45" cy="90.7" r="57.09"/>
        <circle class="cls-84" cx="92.38" cy="90.63" r="57.07"/>
        <circle class="cls-71" cx="92.31" cy="90.56" r="57.05"/>
        <circle class="cls-25" cx="92.24" cy="90.49" r="57.03"/>
        <circle class="cls-73" cx="92.17" cy="90.42" r="57.01"/>
        <circle class="cls-70" cx="92.1" cy="90.35" r="56.99"/>
        <circle class="cls-103" cx="92.03" cy="90.28" r="56.98"/>
        <circle class="cls-2" cx="91.96" cy="90.21" r="56.96"/>
        <circle class="cls-62" cx="91.89" cy="90.14" r="56.94"/>
        <circle class="cls-47" cx="91.82" cy="90.07" r="56.92"/>
        <circle class="cls-51" cx="91.75" cy="90" r="56.9"/>
        <circle class="cls-52" cx="91.68" cy="89.93" r="56.88"/>
        <circle class="cls-24" cx="91.61" cy="89.86" r="56.86"/>
        <circle class="cls-54" cx="91.54" cy="89.79" r="56.85"/>
        <circle class="cls-22" cx="91.47" cy="89.72" r="56.83"/>
        <circle class="cls-33" cx="91.4" cy="89.65" r="56.81"/>
        <circle class="cls-75" cx="91.33" cy="89.58" r="56.79"/>
        <circle class="cls-1" cx="91.26" cy="89.51" r="56.77"/>
      </g>
      <circle class="cls-7" cx="91.22" cy="89.47" r="59.33"/>
      <circle class="cls-7" cx="91.22" cy="89.47" r="48.04"/>
      <path class="cls-48" d="M68.89,107c-1.19,2.14-3.48,3.58-6.11,3.58-3.92,0-7.06-3.14-7.06-7.06s3.14-7.04,7.06-7.04c1.44,0,2.78.44,3.87,1.17l5.53-1.97c-2.24-2.7-5.63-4.41-9.4-4.41-6.77,0-12.25,5.48-12.25,12.25s5.48,12.25,12.25,12.25c5.55,0,10.25-3.7,11.74-8.77h-5.63ZM78.17,103.52c0,.34,0,.71-.05,1.05h-14.05c-1.85,0-2.31-2.58-.56-3.19l13.1-4.72.32.78c.83,1.92,1.24,3.97,1.24,6.09ZM88.01,81.07v4.58l-6.19-4.58h6.19ZM109.34,76.73l-18.9,10.62v-6.28c.58-1.36,1.97-4.09,4.77-6.19,4.38-3.26,9.06-2.58,10.45-2.34,1.12.19,2.12.51,3.02.9l.66,3.29ZM88.03,88.69l-9.98,5.62c-3.12-5.16-8.81-8.62-15.27-8.62-.83,0-1.66.07-2.46.17-1.27.17-2.56-.15-3.53-.97l-2.75-2.26c-.51-.41-.83-1.07-.83-1.75v-2.39c0-1.24,1.02-2.26,2.29-2.26h13.44c1.44,0,2.85.46,4.02,1.31l15.07,11.15ZM123.46,91.27c-.15,0-.29,0-.44.02l2.07,5.38c3.14.73,5.45,3.53,5.45,6.84,0,3.92-3.17,7.06-7.09,7.06s-7.04-3.14-7.04-7.06c0-.78.12-1.53.37-2.22l-3.53-4.55c-1.29,1.95-2.05,4.26-2.05,6.77,0,6.77,5.48,12.25,12.25,12.25s12.3-5.48,12.3-12.25c0-6.77-5.5-12.25-12.3-12.25ZM121.13,102.91l-8.18-10.57c1.8-1.73,4.02-3,6.48-3.65l4.8,12.49c.75,1.92-1.83,3.36-3.09,1.73ZM97.31,100.55c0,2.31-1.88,4.19-4.19,4.19s-4.19-1.87-4.19-4.19,1.88-4.19,4.19-4.19,4.19,1.88,4.19,4.19ZM123.73,70.6c-3.7-4.55-8.33-6.55-11.47-7.43-1.53-.41-2.97.93-2.65,2.48.22,1.1.46,2.26.68,3.43l.46.07c3.17.49,6.31,1.41,9.3,2.73,2.36,1.02,4.63,2.31,6.84,3.92-.73-1.73-1.75-3.51-3.17-5.21ZM128.14,79.78l-1.24-.95c-2.56-2-5.11-3.53-7.79-4.72-2.68-1.17-5.48-2-8.3-2.46.71,3.46,1.29,6.33,1.29,6.33l-32.92,18.51c.93,2.14,1.44,4.53,1.44,7.04,0,1.22-.12,2.41-.34,3.56-.37,1.8,1.1,3.48,2.95,3.48h19.85c1.85,0,3.31-1.68,2.92-3.48-.22-1.14-.34-2.34-.34-3.56,0-9.84,7.99-17.82,17.85-17.82.9,0,1.8.07,2.68.19,1.39.22,2.61-.88,2.53-2.26-.07-1.14-.22-2.44-.56-3.85ZM93.12,107.17c-3.65,0-6.62-2.97-6.62-6.62s2.97-6.62,6.62-6.62,6.62,2.97,6.62,6.62-2.97,6.62-6.62,6.62ZM108.12,70.65c-.71-.22-1.36-.37-2-.49l-1.61-2.14h-3.94c-.68,0-1.22-.54-1.22-1.22s.54-1.22,1.22-1.22h4.55c.37,0,.73.17.97.49l1.51,2,.51,2.58Z"/>
    </g>
  </g>
</svg>