<?xml version="1.0" encoding="UTF-8"?>
<svg xmlns="http://www.w3.org/2000/svg" viewBox="0 0 180 180">
  <defs>
    <style>
      .cls-1 {
        fill: #999;
      }

      .cls-1, .cls-2, .cls-3, .cls-4, .cls-5, .cls-6, .cls-7, .cls-8, .cls-9, .cls-10, .cls-11, .cls-12, .cls-13, .cls-14, .cls-15, .cls-16, .cls-17, .cls-18, .cls-19, .cls-20, .cls-21, .cls-22, .cls-23, .cls-24, .cls-25, .cls-26, .cls-27, .cls-28, .cls-29, .cls-30, .cls-31, .cls-32, .cls-33, .cls-34, .cls-35, .cls-36, .cls-37, .cls-38, .cls-39, .cls-40, .cls-41, .cls-42, .cls-43, .cls-44, .cls-45, .cls-46, .cls-47, .cls-48, .cls-49, .cls-50, .cls-51, .cls-52, .cls-53, .cls-54, .cls-55, .cls-56, .cls-57, .cls-58, .cls-59, .cls-60, .cls-61, .cls-62, .cls-63, .cls-64, .cls-65, .cls-66, .cls-67, .cls-68, .cls-69, .cls-70, .cls-71, .cls-72, .cls-73, .cls-74, .cls-75, .cls-76, .cls-77, .cls-78, .cls-79, .cls-80, .cls-81, .cls-82, .cls-83, .cls-84, .cls-85, .cls-86, .cls-87, .cls-88, .cls-89, .cls-90, .cls-91, .cls-92, .cls-93, .cls-94, .cls-95, .cls-96, .cls-97, .cls-98, .cls-99, .cls-100, .cls-101, .cls-102, .cls-103, .cls-104, .cls-105 {
        stroke-width: 0px;
      }

      .cls-2 {
        fill: #a3a3a3;
      }

      .cls-3 {
        fill: #e4e4e4;
      }

      .cls-4 {
        fill: #bdbdbd;
      }

      .cls-5 {
        fill: #b6b6b6;
      }

      .cls-6 {
        fill: #c1c1c1;
      }

      .cls-7 {
        fill: #45a049;
      }

      .cls-8 {
        fill: #fefefe;
      }

      .cls-9 {
        fill: #cdcdcd;
      }

      .cls-10 {
        fill: #dcdcdc;
      }

      .cls-11 {
        fill: #b2b2b2;
      }

      .cls-12 {
        fill: #f3f3f3;
      }

      .cls-13 {
        fill: #c8c8c8;
      }

      .cls-14 {
        fill: #e1e1e1;
      }

      .cls-15 {
        fill: #bababa;
      }

      .cls-16 {
        fill: #ececec;
      }

      .cls-17 {
        fill: #e6e6e6;
      }

      .cls-106 {
        isolation: isolate;
      }

      .cls-18 {
        fill: #e5e5e5;
      }

      .cls-19 {
        fill: #f7f7f7;
      }

      .cls-20 {
        fill: #e3e3e3;
      }

      .cls-21 {
        fill: #e0e0e0;
      }

      .cls-22 {
        fill: #9c9c9c;
      }

      .cls-23 {
        fill: #c2c2c2;
      }

      .cls-24 {
        fill: #9e9e9e;
      }

      .cls-25 {
        fill: #a7a7a7;
      }

      .cls-26 {
        fill: #c4c4c4;
      }

      .cls-27 {
        fill: #bbb;
      }

      .cls-28 {
        fill: #f5f5f5;
      }

      .cls-29 {
        fill: #b7b7b7;
      }

      .cls-30 {
        fill: #f0f0f0;
      }

      .cls-31 {
        fill: #dfdfdf;
      }

      .cls-32 {
        fill: #b8b8b8;
      }

      .cls-33 {
        fill: #9b9b9b;
      }

      .cls-34 {
        fill: #aeaeae;
      }

      .cls-35 {
        fill: #e9e9e9;
      }

      .cls-36 {
        fill: #ddd;
      }

      .cls-37 {
        fill: #c7c7c7;
      }

      .cls-38 {
        fill: #b3b3b3;
      }

      .cls-39 {
        fill: #b9b9b9;
      }

      .cls-40 {
        fill: #bfbfbf;
      }

      .cls-41 {
        fill: #d2d2d2;
      }

      .cls-42 {
        fill: #e7e7e7;
      }

      .cls-43 {
        fill: #ccc;
      }

      .cls-44 {
        fill: #bebebe;
      }

      .cls-45 {
        fill: #dadada;
      }

      .cls-46 {
        fill: #f6f6f6;
      }

      .cls-47 {
        fill: #a1a1a1;
      }

      .cls-48, .cls-62 {
        fill: #fff;
      }

      .cls-49 {
        fill: #d4d4d4;
      }

      .cls-50 {
        fill: #ededed;
      }

      .cls-51 {
        fill: #a0a0a0;
      }

      .cls-52 {
        fill: #9f9f9f;
      }

      .cls-53 {
        fill: #f8f8f8;
      }

      .cls-54 {
        fill: #9d9d9d;
      }

      .cls-55 {
        fill: #b1b1b1;
      }

      .cls-56 {
        fill: #d5d5d5;
      }

      .cls-57 {
        fill: #b0b0b0;
      }

      .cls-58 {
        fill: #dedede;
      }

      .cls-59 {
        fill: #fafafa;
      }

      .cls-60 {
        fill: #e2e2e2;
      }

      .cls-61 {
        fill: #d3d3d3;
      }

      .cls-62 {
        fill-rule: evenodd;
      }

      .cls-63 {
        fill: #a2a2a2;
      }

      .cls-64 {
        fill: #eee;
      }

      .cls-65 {
        fill: #cbcbcb;
      }

      .cls-66 {
        fill: #bcbcbc;
      }

      .cls-67 {
        fill: #d1d1d1;
      }

      .cls-68 {
        fill: #b5b5b5;
      }

      .cls-69 {
        fill: #c3c3c3;
      }

      .cls-70 {
        fill: #d9d9d9;
      }

      .cls-71 {
        fill: #a5a5a5;
      }

      .cls-72 {
        fill: #a8a8a8;
      }

      .cls-73 {
        fill: #f4f4f4;
      }

      .cls-74 {
        fill: #a6a6a6;
      }

      .cls-75 {
        fill: #acacac;
      }

      .cls-76 {
        fill: #9a9a9a;
      }

      .cls-77 {
        fill: silver;
      }

      .cls-78 {
        fill: #dbdbdb;
      }

      .cls-79 {
        fill: #f1f1f1;
      }

      .cls-80 {
        fill: #ebebeb;
      }

      .cls-81 {
        fill: #c6c6c6;
      }

      .cls-82 {
        fill: #c5c5c5;
      }

      .cls-83 {
        fill: #d7d7d7;
      }

      .cls-84 {
        fill: #d0d0d0;
      }

      .cls-85 {
        fill: #a9a9a9;
      }

      .cls-86 {
        fill: #f9f9f9;
      }

      .cls-87 {
        fill: #d6d6d6;
      }

      .cls-88 {
        fill: #fbfbfb;
      }

      .cls-89 {
        fill: #cfcfcf;
      }

      .cls-90 {
        fill: #e8e8e8;
      }

      .cls-91 {
        fill: #c9c9c9;
      }

      .cls-92 {
        fill: #fdfdfd;
      }

      .cls-93 {
        fill: #cacaca;
      }

      .cls-94 {
        fill: #b4b4b4;
      }

      .cls-95 {
        fill: #afafaf;
      }

      .cls-96 {
        fill: #ababab;
      }

      .cls-97 {
        fill: #eaeaea;
      }

      .cls-98 {
        fill: #fcfcfc;
      }

      .cls-107 {
        mix-blend-mode: multiply;
      }

      .cls-99 {
        fill: #cecece;
      }

      .cls-100 {
        fill: #f2f2f2;
      }

      .cls-101 {
        fill: #aaa;
      }

      .cls-102 {
        fill: #d8d8d8;
      }

      .cls-103 {
        fill: #efefef;
      }

      .cls-104 {
        fill: #a4a4a4;
      }

      .cls-105 {
        fill: #adadad;
      }
    </style>
  </defs>
  <g class="cls-106">
    <g id="Layer_1" data-name="Layer 1">
      <path class="cls-1" d="M91.1,164.15c-41.2,0-74.71-33.52-74.71-74.71S49.9,14.72,91.1,14.72s74.71,33.52,74.71,74.71-33.52,74.71-74.71,74.71ZM91.1,15.81c-40.59,0-73.62,33.03-73.62,73.62s33.03,73.62,73.62,73.62,73.62-33.03,73.62-73.62S131.69,15.81,91.1,15.81Z"/>
      <path class="cls-43" d="M91.1,175.27c-22.93,0-44.48-8.93-60.7-25.14-16.21-16.21-25.14-37.77-25.14-60.7S14.19,44.95,30.4,28.73C46.61,12.52,68.17,3.59,91.1,3.59s44.48,8.93,60.7,25.14c16.21,16.21,25.14,37.77,25.14,60.7s-8.93,44.48-25.14,60.7c-16.21,16.21-37.77,25.14-60.7,25.14ZM91.1,4.69C44.37,4.69,6.35,42.7,6.35,89.43s38.02,84.74,84.74,84.74,84.74-38.02,84.74-84.74S137.82,4.69,91.1,4.69Z"/>
      <g class="cls-107">
        <circle class="cls-48" cx="98.48" cy="96.7" r="58.68"/>
        <circle class="cls-8" cx="98.41" cy="96.63" r="58.66"/>
        <circle class="cls-92" cx="98.34" cy="96.56" r="58.64"/>
        <circle class="cls-98" cx="98.27" cy="96.49" r="58.62"/>
        <circle class="cls-88" cx="98.2" cy="96.42" r="58.61"/>
        <circle class="cls-59" cx="98.13" cy="96.35" r="58.59"/>
        <circle class="cls-86" cx="98.06" cy="96.28" r="58.57"/>
        <circle class="cls-53" cx="97.99" cy="96.21" r="58.55"/>
        <circle class="cls-19" cx="97.92" cy="96.14" r="58.53"/>
        <circle class="cls-46" cx="97.85" cy="96.07" r="58.51"/>
        <circle class="cls-28" cx="97.78" cy="96" r="58.49"/>
        <circle class="cls-73" cx="97.71" cy="95.93" r="58.48"/>
        <circle class="cls-12" cx="97.64" cy="95.86" r="58.46"/>
        <circle class="cls-100" cx="97.57" cy="95.79" r="58.44"/>
        <circle class="cls-79" cx="97.5" cy="95.72" r="58.42"/>
        <circle class="cls-30" cx="97.43" cy="95.65" r="58.4"/>
        <circle class="cls-103" cx="97.36" cy="95.58" r="58.38"/>
        <circle class="cls-64" cx="97.29" cy="95.51" r="58.36"/>
        <circle class="cls-50" cx="97.22" cy="95.43" r="58.35"/>
        <circle class="cls-16" cx="97.15" cy="95.36" r="58.33"/>
        <circle class="cls-80" cx="97.08" cy="95.29" r="58.31"/>
        <circle class="cls-97" cx="97.01" cy="95.22" r="58.29"/>
        <circle class="cls-35" cx="96.94" cy="95.15" r="58.27"/>
        <circle class="cls-90" cx="96.87" cy="95.08" r="58.25"/>
        <circle class="cls-42" cx="96.8" cy="95.01" r="58.23"/>
        <circle class="cls-17" cx="96.73" cy="94.94" r="58.22"/>
        <circle class="cls-18" cx="96.66" cy="94.87" r="58.2"/>
        <circle class="cls-3" cx="96.59" cy="94.8" r="58.18"/>
        <circle class="cls-20" cx="96.52" cy="94.73" r="58.16"/>
        <circle class="cls-60" cx="96.45" cy="94.66" r="58.14"/>
        <circle class="cls-14" cx="96.38" cy="94.59" r="58.12"/>
        <circle class="cls-21" cx="96.31" cy="94.52" r="58.11"/>
        <circle class="cls-31" cx="96.24" cy="94.45" r="58.09"/>
        <circle class="cls-58" cx="96.17" cy="94.38" r="58.07"/>
        <circle class="cls-36" cx="96.1" cy="94.31" r="58.05"/>
        <circle class="cls-10" cx="96.03" cy="94.24" r="58.03"/>
        <circle class="cls-78" cx="95.96" cy="94.17" r="58.01"/>
        <circle class="cls-45" cx="95.89" cy="94.1" r="57.99"/>
        <circle class="cls-70" cx="95.82" cy="94.03" r="57.98"/>
        <circle class="cls-102" cx="95.75" cy="93.96" r="57.96"/>
        <circle class="cls-83" cx="95.68" cy="93.89" r="57.94"/>
        <circle class="cls-87" cx="95.61" cy="93.82" r="57.92"/>
        <circle class="cls-56" cx="95.54" cy="93.75" r="57.9"/>
        <circle class="cls-49" cx="95.47" cy="93.68" r="57.88"/>
        <circle class="cls-61" cx="95.4" cy="93.61" r="57.86"/>
        <circle class="cls-41" cx="95.33" cy="93.54" r="57.85"/>
        <circle class="cls-67" cx="95.26" cy="93.47" r="57.83"/>
        <circle class="cls-84" cx="95.19" cy="93.4" r="57.81"/>
        <circle class="cls-89" cx="95.12" cy="93.33" r="57.79"/>
        <circle class="cls-99" cx="95.05" cy="93.26" r="57.77"/>
        <circle class="cls-9" cx="94.98" cy="93.19" r="57.75"/>
        <circle class="cls-43" cx="94.91" cy="93.12" r="57.73"/>
        <circle class="cls-43" cx="94.84" cy="93.05" r="57.72"/>
        <circle class="cls-65" cx="94.77" cy="92.98" r="57.7"/>
        <circle class="cls-93" cx="94.7" cy="92.91" r="57.68"/>
        <circle class="cls-91" cx="94.63" cy="92.84" r="57.66"/>
        <circle class="cls-13" cx="94.56" cy="92.77" r="57.64"/>
        <circle class="cls-37" cx="94.49" cy="92.7" r="57.62"/>
        <circle class="cls-81" cx="94.42" cy="92.63" r="57.61"/>
        <circle class="cls-82" cx="94.35" cy="92.56" r="57.59"/>
        <circle class="cls-26" cx="94.28" cy="92.49" r="57.57"/>
        <circle class="cls-69" cx="94.2" cy="92.42" r="57.55"/>
        <circle class="cls-23" cx="94.13" cy="92.35" r="57.53"/>
        <circle class="cls-6" cx="94.06" cy="92.28" r="57.51"/>
        <circle class="cls-77" cx="93.99" cy="92.21" r="57.49"/>
        <circle class="cls-40" cx="93.92" cy="92.14" r="57.48"/>
        <circle class="cls-44" cx="93.85" cy="92.07" r="57.46"/>
        <circle class="cls-4" cx="93.78" cy="92" r="57.44"/>
        <circle class="cls-66" cx="93.71" cy="91.93" r="57.42"/>
        <circle class="cls-27" cx="93.64" cy="91.86" r="57.4"/>
        <circle class="cls-15" cx="93.57" cy="91.79" r="57.38"/>
        <circle class="cls-39" cx="93.5" cy="91.72" r="57.36"/>
        <circle class="cls-32" cx="93.43" cy="91.65" r="57.35"/>
        <circle class="cls-29" cx="93.36" cy="91.58" r="57.33"/>
        <circle class="cls-5" cx="93.29" cy="91.51" r="57.31"/>
        <circle class="cls-68" cx="93.22" cy="91.44" r="57.29"/>
        <circle class="cls-94" cx="93.15" cy="91.37" r="57.27"/>
        <circle class="cls-38" cx="93.08" cy="91.3" r="57.25"/>
        <circle class="cls-11" cx="93.01" cy="91.23" r="57.23"/>
        <circle class="cls-55" cx="92.94" cy="91.16" r="57.22"/>
        <circle class="cls-57" cx="92.87" cy="91.08" r="57.2"/>
        <circle class="cls-95" cx="92.8" cy="91.01" r="57.18"/>
        <circle class="cls-34" cx="92.73" cy="90.94" r="57.16"/>
        <circle class="cls-105" cx="92.66" cy="90.87" r="57.14"/>
        <circle class="cls-75" cx="92.59" cy="90.8" r="57.12"/>
        <circle class="cls-96" cx="92.52" cy="90.73" r="57.11"/>
        <circle class="cls-101" cx="92.45" cy="90.66" r="57.09"/>
        <circle class="cls-85" cx="92.38" cy="90.59" r="57.07"/>
        <circle class="cls-72" cx="92.31" cy="90.52" r="57.05"/>
        <circle class="cls-25" cx="92.24" cy="90.45" r="57.03"/>
        <circle class="cls-74" cx="92.17" cy="90.38" r="57.01"/>
        <circle class="cls-71" cx="92.1" cy="90.31" r="56.99"/>
        <circle class="cls-104" cx="92.03" cy="90.24" r="56.98"/>
        <circle class="cls-2" cx="91.96" cy="90.17" r="56.96"/>
        <circle class="cls-63" cx="91.89" cy="90.1" r="56.94"/>
        <circle class="cls-47" cx="91.82" cy="90.03" r="56.92"/>
        <circle class="cls-51" cx="91.75" cy="89.96" r="56.9"/>
        <circle class="cls-52" cx="91.68" cy="89.89" r="56.88"/>
        <circle class="cls-24" cx="91.61" cy="89.82" r="56.86"/>
        <circle class="cls-54" cx="91.54" cy="89.75" r="56.85"/>
        <circle class="cls-22" cx="91.47" cy="89.68" r="56.83"/>
        <circle class="cls-33" cx="91.4" cy="89.61" r="56.81"/>
        <circle class="cls-76" cx="91.33" cy="89.54" r="56.79"/>
        <circle class="cls-1" cx="91.26" cy="89.47" r="56.77"/>
      </g>
      <circle class="cls-7" cx="91.22" cy="89.43" r="59.33"/>
      <circle class="cls-7" cx="91.22" cy="89.43" r="48.04"/>
      <path class="cls-62" d="M127.75,94.47c-1.63,19.41-17.92,34.67-37.74,34.67-20.9,0-37.87-16.97-37.87-37.87s16.97-37.87,37.87-37.87c5.37,0,10.48,1.12,15.11,3.14-1.07,1.76-2.11,3.46-2.69,4.42h0c-.47.77-.6,1.7-.36,2.57.24.87.83,1.6,1.62,2.02,9.2,4.9,15.47,14.59,15.47,25.74,0,.85.34,1.66.94,2.26s1.42.94,2.26.94h5.39ZM113.99,111.63l-3.33,3.33c-.47.47-.47,1.23,0,1.7.47.47,1.23.47,1.7,0l3.33-3.33c.47-.47.47-1.23,0-1.7s-1.23-.47-1.7,0ZM58.64,93.61v-4.65c0-.66-.54-1.2-1.2-1.2s-1.2.54-1.2,1.2v4.65c0,.66.54,1.2,1.2,1.2s1.2-.54,1.2-1.2ZM63.68,93.71v-4.65c0-.66-.54-1.2-1.2-1.2s-1.2.54-1.2,1.2v4.65c0,.66.54,1.2,1.2,1.2s1.2-.54,1.2-1.2ZM90.01,72.46c-10.38,0-18.81,8.43-18.81,18.81s8.43,18.81,18.81,18.81,18.81-8.43,18.81-18.81-8.43-18.81-18.81-18.81h0ZM90.01,74.87c9.05,0,16.4,7.35,16.4,16.4s-7.35,16.4-16.4,16.4-16.4-7.35-16.4-16.4,7.35-16.4,16.4-16.4h0ZM90.01,78.37c-1.37,0-2.48,1.11-2.48,2.48s1.11,2.48,2.48,2.48,2.48-1.11,2.48-2.48-1.11-2.48-2.48-2.48ZM77.11,91.27c0,1.37,1.11,2.48,2.48,2.48s2.48-1.11,2.48-2.48-1.11-2.48-2.48-2.48-2.48,1.11-2.48,2.48ZM90.01,86.37c-2.71,0-4.9,2.2-4.9,4.9s2.2,4.9,4.9,4.9,4.9-2.2,4.9-4.9-2.2-4.9-4.9-4.9ZM90.01,88.78c1.38,0,2.5,1.12,2.5,2.5s-1.12,2.5-2.5,2.5-2.5-1.12-2.5-2.5,1.12-2.5,2.5-2.5ZM97.94,91.27c0,1.37,1.11,2.48,2.48,2.48s2.48-1.11,2.48-2.48-1.11-2.48-2.48-2.48-2.48,1.11-2.48,2.48ZM90.01,99.2c-1.37,0-2.48,1.11-2.48,2.48s1.11,2.48,2.48,2.48,2.48-1.11,2.48-2.48-1.11-2.48-2.48-2.48ZM87.59,120.02h4.65c.66,0,1.2-.54,1.2-1.2s-.54-1.2-1.2-1.2h-4.65c-.66,0-1.2.54-1.2,1.2s.54,1.2,1.2,1.2ZM103.45,74.72l3.33,3.33c.47.47,1.23.47,1.7,0,.47-.47.47-1.23,0-1.7l-3.33-3.33c-.47-.47-1.23-.47-1.7,0s-.47,1.23,0,1.7ZM87.59,125.06h4.65c.66,0,1.2-.54,1.2-1.2s-.54-1.2-1.2-1.2h-4.65c-.66,0-1.2.54-1.2,1.2s.54,1.2,1.2,1.2ZM87.69,60.02h4.65c.66,0,1.2-.54,1.2-1.2s-.54-1.2-1.2-1.2h-4.65c-.66,0-1.2.54-1.2,1.2s.54,1.2,1.2,1.2ZM71.95,105.9l3.33,3.33c.47.47,1.23.47,1.7,0s.47-1.23,0-1.7l-3.33-3.33c-.47-.47-1.23-.47-1.7,0-.47.47-.47,1.23,0,1.7ZM110.38,107.73l-3.33,3.33c-.47.47-.47,1.23,0,1.7s1.23.47,1.7,0l3.33-3.33c.47-.47.47-1.23,0-1.7s-1.23-.47-1.7,0ZM113.61,93.61v-4.65c0-.66-.54-1.2-1.2-1.2s-1.2.54-1.2,1.2v4.65c0,.66.54,1.2,1.2,1.2s1.2-.54,1.2-1.2ZM68.34,109.44l3.33,3.33c.47.47,1.23.47,1.7,0s.47-1.23,0-1.7l-3.33-3.33c-.47-.47-1.23-.47-1.7,0-.47.47-.47,1.23,0,1.7ZM71.66,69.33l-3.33,3.33c-.47.47-.47,1.23,0,1.7.47.47,1.23.47,1.7,0l3.33-3.33c.47-.47.47-1.23,0-1.7s-1.23-.47-1.7,0ZM87.59,70.1h4.65c.66,0,1.2-.54,1.2-1.2s-.54-1.2-1.2-1.2h-4.65c-.66,0-1.2.54-1.2,1.2s.54,1.2,1.2,1.2ZM64.73,113.34l3.33,3.33c.47.47,1.23.47,1.7,0,.47-.47.47-1.23,0-1.7l-3.33-3.33c-.47-.47-1.23-.47-1.7,0s-.47,1.23,0,1.7ZM75.27,73.23l-3.33,3.33c-.47.47-.47,1.23,0,1.7.47.47,1.23.47,1.7,0l3.33-3.33c.47-.47.47-1.23,0-1.7s-1.23-.47-1.7,0ZM106.77,104.2l-3.33,3.33c-.47.47-.47,1.23,0,1.7s1.23.47,1.7,0l3.33-3.33c.47-.47.47-1.23,0-1.7s-1.23-.47-1.7,0ZM87.69,114.98h4.65c.66,0,1.2-.54,1.2-1.2s-.54-1.2-1.2-1.2h-4.65c-.66,0-1.2.54-1.2,1.2s.54,1.2,1.2,1.2ZM87.59,65.06h4.65c.66,0,1.2-.54,1.2-1.2s-.54-1.2-1.2-1.2h-4.65c-.66,0-1.2.54-1.2,1.2s.54,1.2,1.2,1.2ZM68.72,93.71v-4.65c0-.66-.54-1.2-1.2-1.2s-1.2.54-1.2,1.2v4.65c0,.66.54,1.2,1.2,1.2s1.2-.54,1.2-1.2ZM68.05,65.8l-3.33,3.33c-.47.47-.47,1.23,0,1.7s1.23.47,1.7,0l3.33-3.33c.47-.47.47-1.23,0-1.7s-1.23-.47-1.7,0ZM133.85,92.07h-11.49c-.21,0-.41-.08-.56-.23-.15-.15-.23-.35-.23-.56,0-12.06-6.79-22.56-16.75-27.86-.21-.11-.37-.3-.43-.53-.06-.23-.03-.47.09-.68,1.27-2.09,4.71-7.74,5.92-9.72.24-.39.74-.53,1.15-.31,13.76,7.6,23.1,22.27,23.1,39.09,0,.44-.36.8-.8.8h0Z"/>
    </g>
  </g>
</svg>