<?xml version="1.0" encoding="UTF-8"?>
<svg xmlns="http://www.w3.org/2000/svg" viewBox="0 0 180 180">
  <defs>
    <style>
      .cls-1 {
        fill: #999;
      }

      .cls-1, .cls-2, .cls-3, .cls-4, .cls-5, .cls-6, .cls-7, .cls-8, .cls-9, .cls-10, .cls-11, .cls-12, .cls-13, .cls-14, .cls-15, .cls-16, .cls-17, .cls-18, .cls-19, .cls-20, .cls-21, .cls-22, .cls-23, .cls-24, .cls-25, .cls-26, .cls-27, .cls-28, .cls-29, .cls-30, .cls-31, .cls-32, .cls-33, .cls-34, .cls-35, .cls-36, .cls-37, .cls-38, .cls-39, .cls-40, .cls-41, .cls-42, .cls-43, .cls-44, .cls-45, .cls-46, .cls-47, .cls-48, .cls-49, .cls-50, .cls-51, .cls-52, .cls-53, .cls-54, .cls-55, .cls-56, .cls-57, .cls-58, .cls-59, .cls-60, .cls-61, .cls-62, .cls-63, .cls-64, .cls-65, .cls-66, .cls-67, .cls-68, .cls-69, .cls-70, .cls-71, .cls-72, .cls-73, .cls-74, .cls-75, .cls-76, .cls-77, .cls-78, .cls-79, .cls-80, .cls-81, .cls-82, .cls-83, .cls-84, .cls-85, .cls-86, .cls-87, .cls-88, .cls-89, .cls-90, .cls-91, .cls-92, .cls-93, .cls-94, .cls-95, .cls-96, .cls-97, .cls-98, .cls-99, .cls-100, .cls-101, .cls-102, .cls-103, .cls-104, .cls-105 {
        stroke-width: 0px;
      }

      .cls-2 {
        fill: #a3a3a3;
      }

      .cls-3 {
        fill: #e4e4e4;
      }

      .cls-4 {
        fill: #bdbdbd;
      }

      .cls-5 {
        fill: #b6b6b6;
      }

      .cls-6 {
        fill: #c1c1c1;
      }

      .cls-7 {
        fill: #45a049;
      }

      .cls-8 {
        fill: #fefefe;
      }

      .cls-9 {
        fill: #cdcdcd;
      }

      .cls-10 {
        fill: #dcdcdc;
      }

      .cls-11 {
        fill: #b2b2b2;
      }

      .cls-12 {
        fill: #f3f3f3;
      }

      .cls-13 {
        fill: #c8c8c8;
      }

      .cls-14 {
        fill: #e1e1e1;
      }

      .cls-15 {
        fill: #bababa;
      }

      .cls-16 {
        fill: #ececec;
      }

      .cls-17 {
        fill: #e6e6e6;
      }

      .cls-106 {
        isolation: isolate;
      }

      .cls-18 {
        fill: #e5e5e5;
      }

      .cls-19 {
        fill: #f7f7f7;
      }

      .cls-20 {
        fill: #e3e3e3;
      }

      .cls-21 {
        fill: #e0e0e0;
      }

      .cls-22 {
        fill: #9c9c9c;
      }

      .cls-23 {
        fill: #c2c2c2;
      }

      .cls-24 {
        fill: #9e9e9e;
      }

      .cls-25 {
        fill: #a7a7a7;
      }

      .cls-26 {
        fill: #c4c4c4;
      }

      .cls-27 {
        fill: #bbb;
      }

      .cls-28 {
        fill: #f5f5f5;
      }

      .cls-29 {
        fill: #b7b7b7;
      }

      .cls-30 {
        fill: #f0f0f0;
      }

      .cls-31 {
        fill: #dfdfdf;
      }

      .cls-32 {
        fill: #b8b8b8;
      }

      .cls-33 {
        fill: #9b9b9b;
      }

      .cls-34 {
        fill: #aeaeae;
      }

      .cls-35 {
        fill: #e9e9e9;
      }

      .cls-36 {
        fill: #ddd;
      }

      .cls-37 {
        fill: #c7c7c7;
      }

      .cls-38 {
        fill: #b3b3b3;
      }

      .cls-39 {
        fill: #b9b9b9;
      }

      .cls-40 {
        fill: #bfbfbf;
      }

      .cls-41 {
        fill: #d2d2d2;
      }

      .cls-42 {
        fill: #e7e7e7;
      }

      .cls-43 {
        fill: #ccc;
      }

      .cls-44 {
        fill: #bebebe;
      }

      .cls-45 {
        fill: #dadada;
      }

      .cls-46 {
        fill: #f6f6f6;
      }

      .cls-47 {
        fill: #a1a1a1;
      }

      .cls-48, .cls-62 {
        fill: #fff;
      }

      .cls-49 {
        fill: #d4d4d4;
      }

      .cls-50 {
        fill: #ededed;
      }

      .cls-51 {
        fill: #a0a0a0;
      }

      .cls-52 {
        fill: #9f9f9f;
      }

      .cls-53 {
        fill: #f8f8f8;
      }

      .cls-54 {
        fill: #9d9d9d;
      }

      .cls-55 {
        fill: #b1b1b1;
      }

      .cls-56 {
        fill: #d5d5d5;
      }

      .cls-57 {
        fill: #b0b0b0;
      }

      .cls-58 {
        fill: #dedede;
      }

      .cls-59 {
        fill: #fafafa;
      }

      .cls-60 {
        fill: #e2e2e2;
      }

      .cls-61 {
        fill: #d3d3d3;
      }

      .cls-62 {
        fill-rule: evenodd;
      }

      .cls-63 {
        fill: #a2a2a2;
      }

      .cls-64 {
        fill: #eee;
      }

      .cls-65 {
        fill: #cbcbcb;
      }

      .cls-66 {
        fill: #bcbcbc;
      }

      .cls-67 {
        fill: #d1d1d1;
      }

      .cls-68 {
        fill: #b5b5b5;
      }

      .cls-69 {
        fill: #c3c3c3;
      }

      .cls-70 {
        fill: #d9d9d9;
      }

      .cls-71 {
        fill: #a5a5a5;
      }

      .cls-72 {
        fill: #a8a8a8;
      }

      .cls-73 {
        fill: #f4f4f4;
      }

      .cls-74 {
        fill: #a6a6a6;
      }

      .cls-75 {
        fill: #acacac;
      }

      .cls-76 {
        fill: #9a9a9a;
      }

      .cls-77 {
        fill: silver;
      }

      .cls-78 {
        fill: #dbdbdb;
      }

      .cls-79 {
        fill: #f1f1f1;
      }

      .cls-80 {
        fill: #ebebeb;
      }

      .cls-81 {
        fill: #c6c6c6;
      }

      .cls-82 {
        fill: #c5c5c5;
      }

      .cls-83 {
        fill: #d7d7d7;
      }

      .cls-84 {
        fill: #d0d0d0;
      }

      .cls-85 {
        fill: #a9a9a9;
      }

      .cls-86 {
        fill: #f9f9f9;
      }

      .cls-87 {
        fill: #d6d6d6;
      }

      .cls-88 {
        fill: #fbfbfb;
      }

      .cls-89 {
        fill: #cfcfcf;
      }

      .cls-90 {
        fill: #e8e8e8;
      }

      .cls-91 {
        fill: #c9c9c9;
      }

      .cls-92 {
        fill: #fdfdfd;
      }

      .cls-93 {
        fill: #cacaca;
      }

      .cls-94 {
        fill: #b4b4b4;
      }

      .cls-95 {
        fill: #afafaf;
      }

      .cls-96 {
        fill: #ababab;
      }

      .cls-97 {
        fill: #eaeaea;
      }

      .cls-98 {
        fill: #fcfcfc;
      }

      .cls-107 {
        mix-blend-mode: multiply;
      }

      .cls-99 {
        fill: #cecece;
      }

      .cls-100 {
        fill: #f2f2f2;
      }

      .cls-101 {
        fill: #aaa;
      }

      .cls-102 {
        fill: #d8d8d8;
      }

      .cls-103 {
        fill: #efefef;
      }

      .cls-104 {
        fill: #a4a4a4;
      }

      .cls-105 {
        fill: #adadad;
      }
    </style>
  </defs>
  <g class="cls-106">
    <g id="Layer_1" data-name="Layer 1">
      <path class="cls-1" d="M90,164.75c-41.2,0-74.71-33.52-74.71-74.71S48.8,15.33,90,15.33s74.71,33.52,74.71,74.71-33.52,74.71-74.71,74.71ZM90,16.42c-40.59,0-73.62,33.03-73.62,73.62s33.03,73.62,73.62,73.62,73.62-33.03,73.62-73.62S130.59,16.42,90,16.42Z"/>
      <path class="cls-43" d="M90,175.88c-22.93,0-44.48-8.93-60.7-25.14-16.21-16.21-25.14-37.77-25.14-60.7S13.09,45.56,29.3,29.34C45.52,13.13,67.07,4.2,90,4.2s44.48,8.93,60.7,25.14c16.21,16.21,25.14,37.77,25.14,60.7s-8.93,44.48-25.14,60.7c-16.21,16.21-37.77,25.14-60.7,25.14ZM90,5.3C43.27,5.3,5.26,43.31,5.26,90.04s38.02,84.74,84.74,84.74,84.74-38.02,84.74-84.74S136.73,5.3,90,5.3Z"/>
      <g class="cls-107">
        <circle class="cls-48" cx="97.39" cy="97.31" r="58.68"/>
        <circle class="cls-8" cx="97.32" cy="97.24" r="58.66"/>
        <circle class="cls-92" cx="97.25" cy="97.17" r="58.64"/>
        <circle class="cls-98" cx="97.18" cy="97.1" r="58.62"/>
        <circle class="cls-88" cx="97.11" cy="97.03" r="58.61"/>
        <circle class="cls-59" cx="97.04" cy="96.96" r="58.59"/>
        <circle class="cls-86" cx="96.97" cy="96.89" r="58.57"/>
        <circle class="cls-53" cx="96.9" cy="96.82" r="58.55"/>
        <circle class="cls-19" cx="96.83" cy="96.75" r="58.53"/>
        <circle class="cls-46" cx="96.76" cy="96.68" r="58.51"/>
        <circle class="cls-28" cx="96.69" cy="96.61" r="58.49"/>
        <circle class="cls-73" cx="96.62" cy="96.54" r="58.48"/>
        <circle class="cls-12" cx="96.55" cy="96.47" r="58.46"/>
        <circle class="cls-100" cx="96.48" cy="96.39" r="58.44"/>
        <circle class="cls-79" cx="96.41" cy="96.32" r="58.42"/>
        <circle class="cls-30" cx="96.34" cy="96.25" r="58.4"/>
        <circle class="cls-103" cx="96.27" cy="96.18" r="58.38"/>
        <circle class="cls-64" cx="96.2" cy="96.11" r="58.36"/>
        <circle class="cls-50" cx="96.13" cy="96.04" r="58.35"/>
        <circle class="cls-16" cx="96.06" cy="95.97" r="58.33"/>
        <circle class="cls-80" cx="95.99" cy="95.9" r="58.31"/>
        <circle class="cls-97" cx="95.92" cy="95.83" r="58.29"/>
        <circle class="cls-35" cx="95.85" cy="95.76" r="58.27"/>
        <circle class="cls-90" cx="95.77" cy="95.69" r="58.25"/>
        <circle class="cls-42" cx="95.7" cy="95.62" r="58.23"/>
        <circle class="cls-17" cx="95.63" cy="95.55" r="58.22"/>
        <circle class="cls-18" cx="95.56" cy="95.48" r="58.2"/>
        <circle class="cls-3" cx="95.49" cy="95.41" r="58.18"/>
        <circle class="cls-20" cx="95.42" cy="95.34" r="58.16"/>
        <circle class="cls-60" cx="95.35" cy="95.27" r="58.14"/>
        <circle class="cls-14" cx="95.28" cy="95.2" r="58.12"/>
        <circle class="cls-21" cx="95.21" cy="95.13" r="58.11"/>
        <circle class="cls-31" cx="95.14" cy="95.06" r="58.09"/>
        <circle class="cls-58" cx="95.07" cy="94.99" r="58.07"/>
        <circle class="cls-36" cx="95" cy="94.92" r="58.05"/>
        <circle class="cls-10" cx="94.93" cy="94.85" r="58.03"/>
        <circle class="cls-78" cx="94.86" cy="94.78" r="58.01"/>
        <circle class="cls-45" cx="94.79" cy="94.71" r="57.99"/>
        <circle class="cls-70" cx="94.72" cy="94.64" r="57.98"/>
        <circle class="cls-102" cx="94.65" cy="94.57" r="57.96"/>
        <circle class="cls-83" cx="94.58" cy="94.5" r="57.94"/>
        <circle class="cls-87" cx="94.51" cy="94.43" r="57.92"/>
        <circle class="cls-56" cx="94.44" cy="94.36" r="57.9"/>
        <circle class="cls-49" cx="94.37" cy="94.29" r="57.88"/>
        <circle class="cls-61" cx="94.3" cy="94.22" r="57.86"/>
        <circle class="cls-41" cx="94.23" cy="94.15" r="57.85"/>
        <circle class="cls-67" cx="94.16" cy="94.08" r="57.83"/>
        <circle class="cls-84" cx="94.09" cy="94.01" r="57.81"/>
        <circle class="cls-89" cx="94.02" cy="93.94" r="57.79"/>
        <circle class="cls-99" cx="93.95" cy="93.87" r="57.77"/>
        <circle class="cls-9" cx="93.88" cy="93.8" r="57.75"/>
        <circle class="cls-43" cx="93.81" cy="93.73" r="57.73"/>
        <circle class="cls-43" cx="93.74" cy="93.66" r="57.72"/>
        <circle class="cls-65" cx="93.67" cy="93.59" r="57.7"/>
        <circle class="cls-93" cx="93.6" cy="93.52" r="57.68"/>
        <circle class="cls-91" cx="93.53" cy="93.45" r="57.66"/>
        <circle class="cls-13" cx="93.46" cy="93.38" r="57.64"/>
        <circle class="cls-37" cx="93.39" cy="93.31" r="57.62"/>
        <circle class="cls-81" cx="93.32" cy="93.24" r="57.61"/>
        <circle class="cls-82" cx="93.25" cy="93.17" r="57.59"/>
        <circle class="cls-26" cx="93.18" cy="93.1" r="57.57"/>
        <circle class="cls-69" cx="93.11" cy="93.03" r="57.55"/>
        <circle class="cls-23" cx="93.04" cy="92.96" r="57.53"/>
        <circle class="cls-6" cx="92.97" cy="92.89" r="57.51"/>
        <circle class="cls-77" cx="92.9" cy="92.82" r="57.49"/>
        <circle class="cls-40" cx="92.83" cy="92.75" r="57.48"/>
        <circle class="cls-44" cx="92.76" cy="92.68" r="57.46"/>
        <circle class="cls-4" cx="92.69" cy="92.61" r="57.44"/>
        <circle class="cls-66" cx="92.62" cy="92.54" r="57.42"/>
        <circle class="cls-27" cx="92.55" cy="92.47" r="57.4"/>
        <circle class="cls-15" cx="92.48" cy="92.4" r="57.38"/>
        <circle class="cls-39" cx="92.41" cy="92.33" r="57.36"/>
        <circle class="cls-32" cx="92.34" cy="92.26" r="57.35"/>
        <circle class="cls-29" cx="92.27" cy="92.19" r="57.33"/>
        <circle class="cls-5" cx="92.2" cy="92.12" r="57.31"/>
        <circle class="cls-68" cx="92.13" cy="92.05" r="57.29"/>
        <circle class="cls-94" cx="92.06" cy="91.97" r="57.27"/>
        <circle class="cls-38" cx="91.99" cy="91.9" r="57.25"/>
        <circle class="cls-11" cx="91.92" cy="91.83" r="57.23"/>
        <circle class="cls-55" cx="91.85" cy="91.76" r="57.22"/>
        <circle class="cls-57" cx="91.78" cy="91.69" r="57.2"/>
        <circle class="cls-95" cx="91.71" cy="91.62" r="57.18"/>
        <circle class="cls-34" cx="91.64" cy="91.55" r="57.16"/>
        <circle class="cls-105" cx="91.57" cy="91.48" r="57.14"/>
        <circle class="cls-75" cx="91.5" cy="91.41" r="57.12"/>
        <circle class="cls-96" cx="91.42" cy="91.34" r="57.11"/>
        <circle class="cls-101" cx="91.35" cy="91.27" r="57.09"/>
        <circle class="cls-85" cx="91.28" cy="91.2" r="57.07"/>
        <circle class="cls-72" cx="91.21" cy="91.13" r="57.05"/>
        <circle class="cls-25" cx="91.14" cy="91.06" r="57.03"/>
        <circle class="cls-74" cx="91.07" cy="90.99" r="57.01"/>
        <circle class="cls-71" cx="91" cy="90.92" r="56.99"/>
        <circle class="cls-104" cx="90.93" cy="90.85" r="56.98"/>
        <circle class="cls-2" cx="90.86" cy="90.78" r="56.96"/>
        <circle class="cls-63" cx="90.79" cy="90.71" r="56.94"/>
        <circle class="cls-47" cx="90.72" cy="90.64" r="56.92"/>
        <circle class="cls-51" cx="90.65" cy="90.57" r="56.9"/>
        <circle class="cls-52" cx="90.58" cy="90.5" r="56.88"/>
        <circle class="cls-24" cx="90.51" cy="90.43" r="56.86"/>
        <circle class="cls-54" cx="90.44" cy="90.36" r="56.85"/>
        <circle class="cls-22" cx="90.37" cy="90.29" r="56.83"/>
        <circle class="cls-33" cx="90.3" cy="90.22" r="56.81"/>
        <circle class="cls-76" cx="90.23" cy="90.15" r="56.79"/>
        <circle class="cls-1" cx="90.16" cy="90.08" r="56.77"/>
      </g>
      <circle class="cls-7" cx="90.12" cy="90.04" r="59.33"/>
      <circle class="cls-7" cx="90.12" cy="90.04" r="48.04"/>
      <g id="Icons">
        <path class="cls-62" d="M72.93,87.04c-.38.02-9.8.01-10.27,0v9.88l-1.01,1.81,2.01,2.62-1.61,2.82v3.62l.81,1.01v8.05l1.21.81v6.65l3.62,5.24,4.23-4.83-1.21-2.01v-6.64l2.21-3.22-1.61-3.02.81-2.62-.6-2.22.81-1.81-1.21-2.21v-3.42l1.81-3.42v-7.06h0ZM108.57,122.85c-10.62,0-19.57.19-19.98-3.38-11.31-77.91,51.28-77.87,39.97,0-.42,3.57-9.37,3.38-19.98,3.38ZM119.54,110.04c0-1.78-1.45-3.23-3.23-3.23h-15.48c-1.78,0-3.23,1.45-3.23,3.23v4.79c0,1.78,1.45,3.23,3.23,3.23h15.48c1.78,0,3.23-1.45,3.23-3.23v-4.79ZM117.87,110.04v4.79c0,.86-.7,1.56-1.56,1.56h-15.48c-.86,0-1.56-.7-1.56-1.56v-4.79c0-.86.7-1.56,1.56-1.56h15.48c.86,0,1.56.7,1.56,1.56ZM119.54,95.12c0-1.78-1.45-3.23-3.23-3.23h-15.48c-1.78,0-3.23,1.45-3.23,3.23v4.79c0,1.78,1.45,3.23,3.23,3.23h15.48c1.78,0,3.23-1.45,3.23-3.23v-4.79ZM117.87,95.12v4.79c0,.86-.7,1.56-1.56,1.56h-15.48c-.86,0-1.56-.7-1.56-1.56v-4.79c0-.86.7-1.56,1.56-1.56h15.48c.86,0,1.56.7,1.56,1.56ZM114.36,88.21h1.95c1.78,0,3.23-1.45,3.23-3.23v-4.79c0-1.78-1.45-3.23-3.23-3.23h-15.48c-1.78,0-3.23,1.45-3.23,3.23v4.79c0,1.78,1.45,3.23,3.23,3.23h10.2c1.09,0,1.09-1.66,0-1.67h-10.2c-.86,0-1.56-.7-1.56-1.56v-4.79c0-.86.7-1.56,1.56-1.56h15.48c.86,0,1.56.7,1.56,1.56v4.79c0,.86-.7,1.56-1.56,1.56h-1.95c-1.1.02-1.09,1.65,0,1.67ZM85.73,69.93v7.59c0,4.71-6.02,8.53-13.43,8.53h-9.21c-7.41,0-13.43-3.82-13.43-8.53v-7.59c2.2-20.64,33.86-20.64,36.06,0h0ZM80.96,74.59v1.33c-.05,3.23-3.43,3.54-2.5,4.91.27.37.79.46,1.16.19,1.87-1.34,2.98-3.12,3.01-5.04v-.03s0-1.37,0-1.37c-.02-1.09-1.65-1.1-1.67,0h0ZM81.88,76.68s-.03.01-.05.02l-.04.07.08-.08ZM80.97,75.94l.82.82-.04-.04s.06-.02.08-.02l.08-.14c-.41-.15-.85-.54-.93-.61h0ZM80.96,70v1.77c0,.46.37.83.83.83s.83-.37.83-.83v-1.77c-.02-1.09-1.65-1.1-1.67,0ZM108.57,64.68c-4.16.07-8.61,2.43-9,5.9.02,1.04.57,1.62,1.54,1.88,2.28.4,4.71-.27,7.46-.2,2.75-.06,5.18.61,7.46.2.97-.26,1.52-.85,1.54-1.88-.38-3.47-4.84-5.83-9-5.9h0ZM108.57,66.34c2.48,0,4.67,1,6.04,2.2.68.56,1.77,1.95,1.08,2.28-1.92.34-4.06-.27-7.11-.23-3.06-.04-5.19.58-7.11.23-.7-.33.41-1.72,1.08-2.28,1.36-1.2,3.56-2.2,6.04-2.2ZM67.7,64.53c2.85-.08,6.14-.68,6.37-3.05-.2-4.08-12.53-4.09-12.74,0,.22,2.36,3.52,2.97,6.37,3.05h0ZM67.7,62.87c-1.77-.04-4-.3-4.7-1.38.71-1.08,2.93-1.34,4.7-1.38,1.77.04,4,.3,4.7,1.38-.71,1.08-2.93,1.34-4.7,1.38h0Z"/>
      </g>
    </g>
  </g>
</svg>