<?xml version="1.0" encoding="UTF-8"?>
<svg xmlns="http://www.w3.org/2000/svg" viewBox="0 0 180 180">
  <defs>
    <style>
      .cls-1 {
        fill: #999;
      }

      .cls-1, .cls-2, .cls-3, .cls-4, .cls-5, .cls-6, .cls-7, .cls-8, .cls-9, .cls-10, .cls-11, .cls-12, .cls-13, .cls-14, .cls-15, .cls-16, .cls-17, .cls-18, .cls-19, .cls-20, .cls-21, .cls-22, .cls-23, .cls-24, .cls-25, .cls-26, .cls-27, .cls-28, .cls-29, .cls-30, .cls-31, .cls-32, .cls-33, .cls-34, .cls-35, .cls-36, .cls-37, .cls-38, .cls-39, .cls-40, .cls-41, .cls-42, .cls-43, .cls-44, .cls-45, .cls-46, .cls-47, .cls-48, .cls-49, .cls-50, .cls-51, .cls-52, .cls-53, .cls-54, .cls-55, .cls-56, .cls-57, .cls-58, .cls-59, .cls-60, .cls-61, .cls-62, .cls-63, .cls-64, .cls-65, .cls-66, .cls-67, .cls-68, .cls-69, .cls-70, .cls-71, .cls-72, .cls-73, .cls-74, .cls-75, .cls-76, .cls-77, .cls-78, .cls-79, .cls-80, .cls-81, .cls-82, .cls-83, .cls-84, .cls-85, .cls-86, .cls-87, .cls-88, .cls-89, .cls-90, .cls-91, .cls-92, .cls-93, .cls-94, .cls-95, .cls-96, .cls-97, .cls-98, .cls-99, .cls-100, .cls-101, .cls-102, .cls-103, .cls-104, .cls-105 {
        stroke-width: 0px;
      }

      .cls-2 {
        fill: #a3a3a3;
      }

      .cls-3 {
        fill: #e4e4e4;
      }

      .cls-4 {
        fill: #bdbdbd;
      }

      .cls-5 {
        fill: #b6b6b6;
      }

      .cls-6 {
        fill: #c1c1c1;
      }

      .cls-7 {
        fill: #45a049;
      }

      .cls-8 {
        fill: #fefefe;
      }

      .cls-9 {
        fill: #cdcdcd;
      }

      .cls-10 {
        fill: #dcdcdc;
      }

      .cls-11 {
        fill: #b2b2b2;
      }

      .cls-12 {
        fill: #f3f3f3;
      }

      .cls-13 {
        fill: #c8c8c8;
      }

      .cls-14 {
        fill: #e1e1e1;
      }

      .cls-15 {
        fill: #bababa;
      }

      .cls-16 {
        fill: #ececec;
      }

      .cls-17 {
        fill: #e6e6e6;
      }

      .cls-106 {
        isolation: isolate;
      }

      .cls-18 {
        fill: #e5e5e5;
      }

      .cls-19 {
        fill: #f7f7f7;
      }

      .cls-20 {
        fill: #e3e3e3;
      }

      .cls-21 {
        fill: #e0e0e0;
      }

      .cls-22 {
        fill: #9c9c9c;
      }

      .cls-23 {
        fill: #c2c2c2;
      }

      .cls-24 {
        fill: #9e9e9e;
      }

      .cls-25 {
        fill: #a7a7a7;
      }

      .cls-26 {
        fill: #c4c4c4;
      }

      .cls-27 {
        fill: #bbb;
      }

      .cls-28 {
        fill: #f5f5f5;
      }

      .cls-29 {
        fill: #b7b7b7;
      }

      .cls-30 {
        fill: #f0f0f0;
      }

      .cls-31 {
        fill: #dfdfdf;
      }

      .cls-32 {
        fill: #b8b8b8;
      }

      .cls-33 {
        fill: #9b9b9b;
      }

      .cls-34 {
        fill: #aeaeae;
      }

      .cls-35 {
        fill: #e9e9e9;
      }

      .cls-36 {
        fill: #ddd;
      }

      .cls-37 {
        fill: #c7c7c7;
      }

      .cls-38 {
        fill: #b3b3b3;
      }

      .cls-39 {
        fill: #b9b9b9;
      }

      .cls-40 {
        fill: #bfbfbf;
      }

      .cls-41 {
        fill: #d2d2d2;
      }

      .cls-42 {
        fill: #e7e7e7;
      }

      .cls-43 {
        fill: #ccc;
      }

      .cls-44 {
        fill: #bebebe;
      }

      .cls-45 {
        fill: #dadada;
      }

      .cls-46 {
        fill: #f6f6f6;
      }

      .cls-47 {
        fill: #a1a1a1;
      }

      .cls-48, .cls-62 {
        fill: #fff;
      }

      .cls-49 {
        fill: #d4d4d4;
      }

      .cls-50 {
        fill: #ededed;
      }

      .cls-51 {
        fill: #a0a0a0;
      }

      .cls-52 {
        fill: #9f9f9f;
      }

      .cls-53 {
        fill: #f8f8f8;
      }

      .cls-54 {
        fill: #9d9d9d;
      }

      .cls-55 {
        fill: #b1b1b1;
      }

      .cls-56 {
        fill: #d5d5d5;
      }

      .cls-57 {
        fill: #b0b0b0;
      }

      .cls-58 {
        fill: #dedede;
      }

      .cls-59 {
        fill: #fafafa;
      }

      .cls-60 {
        fill: #e2e2e2;
      }

      .cls-61 {
        fill: #d3d3d3;
      }

      .cls-62 {
        fill-rule: evenodd;
      }

      .cls-63 {
        fill: #a2a2a2;
      }

      .cls-64 {
        fill: #eee;
      }

      .cls-65 {
        fill: #cbcbcb;
      }

      .cls-66 {
        fill: #bcbcbc;
      }

      .cls-67 {
        fill: #d1d1d1;
      }

      .cls-68 {
        fill: #b5b5b5;
      }

      .cls-69 {
        fill: #c3c3c3;
      }

      .cls-70 {
        fill: #d9d9d9;
      }

      .cls-71 {
        fill: #a5a5a5;
      }

      .cls-72 {
        fill: #a8a8a8;
      }

      .cls-73 {
        fill: #f4f4f4;
      }

      .cls-74 {
        fill: #a6a6a6;
      }

      .cls-75 {
        fill: #acacac;
      }

      .cls-76 {
        fill: #9a9a9a;
      }

      .cls-77 {
        fill: silver;
      }

      .cls-78 {
        fill: #dbdbdb;
      }

      .cls-79 {
        fill: #f1f1f1;
      }

      .cls-80 {
        fill: #ebebeb;
      }

      .cls-81 {
        fill: #c6c6c6;
      }

      .cls-82 {
        fill: #c5c5c5;
      }

      .cls-83 {
        fill: #d7d7d7;
      }

      .cls-84 {
        fill: #d0d0d0;
      }

      .cls-85 {
        fill: #a9a9a9;
      }

      .cls-86 {
        fill: #f9f9f9;
      }

      .cls-87 {
        fill: #d6d6d6;
      }

      .cls-88 {
        fill: #fbfbfb;
      }

      .cls-89 {
        fill: #cfcfcf;
      }

      .cls-90 {
        fill: #e8e8e8;
      }

      .cls-91 {
        fill: #c9c9c9;
      }

      .cls-92 {
        fill: #fdfdfd;
      }

      .cls-93 {
        fill: #cacaca;
      }

      .cls-94 {
        fill: #b4b4b4;
      }

      .cls-95 {
        fill: #afafaf;
      }

      .cls-96 {
        fill: #ababab;
      }

      .cls-97 {
        fill: #eaeaea;
      }

      .cls-98 {
        fill: #fcfcfc;
      }

      .cls-107 {
        mix-blend-mode: multiply;
      }

      .cls-99 {
        fill: #cecece;
      }

      .cls-100 {
        fill: #f2f2f2;
      }

      .cls-101 {
        fill: #aaa;
      }

      .cls-102 {
        fill: #d8d8d8;
      }

      .cls-103 {
        fill: #efefef;
      }

      .cls-104 {
        fill: #a4a4a4;
      }

      .cls-105 {
        fill: #adadad;
      }
    </style>
  </defs>
  <g class="cls-106">
    <g id="Layer_1" data-name="Layer 1">
      <path class="cls-1" d="M90,165.85c-41.2,0-74.71-33.52-74.71-74.71S48.8,16.42,90,16.42s74.71,33.52,74.71,74.71-33.52,74.71-74.71,74.71ZM90,17.52c-40.59,0-73.62,33.03-73.62,73.62s33.03,73.62,73.62,73.62,73.62-33.03,73.62-73.62S130.59,17.52,90,17.52Z"/>
      <path class="cls-43" d="M90,176.98c-22.93,0-44.48-8.93-60.7-25.14-16.21-16.21-25.14-37.77-25.14-60.7S13.09,46.65,29.3,30.44C45.52,14.23,67.07,5.3,90,5.3s44.48,8.93,60.7,25.14c16.21,16.21,25.14,37.77,25.14,60.7s-8.93,44.48-25.14,60.7c-16.21,16.21-37.77,25.14-60.7,25.14ZM90,6.39C43.27,6.39,5.26,44.41,5.26,91.14s38.02,84.74,84.74,84.74,84.74-38.02,84.74-84.74S136.73,6.39,90,6.39Z"/>
      <g class="cls-107">
        <circle class="cls-48" cx="97.39" cy="98.4" r="58.68"/>
        <circle class="cls-8" cx="97.32" cy="98.33" r="58.66"/>
        <circle class="cls-92" cx="97.25" cy="98.26" r="58.64"/>
        <circle class="cls-98" cx="97.18" cy="98.19" r="58.62"/>
        <circle class="cls-88" cx="97.11" cy="98.12" r="58.61"/>
        <circle class="cls-59" cx="97.04" cy="98.05" r="58.59"/>
        <circle class="cls-86" cx="96.97" cy="97.98" r="58.57"/>
        <circle class="cls-53" cx="96.9" cy="97.91" r="58.55"/>
        <circle class="cls-19" cx="96.83" cy="97.84" r="58.53"/>
        <circle class="cls-46" cx="96.76" cy="97.77" r="58.51"/>
        <circle class="cls-28" cx="96.69" cy="97.7" r="58.49"/>
        <circle class="cls-73" cx="96.62" cy="97.63" r="58.48"/>
        <circle class="cls-12" cx="96.55" cy="97.56" r="58.46"/>
        <circle class="cls-100" cx="96.48" cy="97.49" r="58.44"/>
        <circle class="cls-79" cx="96.41" cy="97.42" r="58.42"/>
        <circle class="cls-30" cx="96.34" cy="97.35" r="58.4"/>
        <circle class="cls-103" cx="96.27" cy="97.28" r="58.38"/>
        <circle class="cls-64" cx="96.2" cy="97.21" r="58.36"/>
        <circle class="cls-50" cx="96.13" cy="97.14" r="58.35"/>
        <circle class="cls-16" cx="96.06" cy="97.07" r="58.33"/>
        <circle class="cls-80" cx="95.99" cy="97" r="58.31"/>
        <circle class="cls-97" cx="95.92" cy="96.93" r="58.29"/>
        <circle class="cls-35" cx="95.85" cy="96.86" r="58.27"/>
        <circle class="cls-90" cx="95.77" cy="96.79" r="58.25"/>
        <circle class="cls-42" cx="95.7" cy="96.72" r="58.23"/>
        <circle class="cls-17" cx="95.63" cy="96.65" r="58.22"/>
        <circle class="cls-18" cx="95.56" cy="96.58" r="58.2"/>
        <circle class="cls-3" cx="95.49" cy="96.51" r="58.18"/>
        <circle class="cls-20" cx="95.42" cy="96.44" r="58.16"/>
        <circle class="cls-60" cx="95.35" cy="96.37" r="58.14"/>
        <circle class="cls-14" cx="95.28" cy="96.3" r="58.12"/>
        <circle class="cls-21" cx="95.21" cy="96.23" r="58.11"/>
        <circle class="cls-31" cx="95.14" cy="96.16" r="58.09"/>
        <circle class="cls-58" cx="95.07" cy="96.09" r="58.07"/>
        <circle class="cls-36" cx="95" cy="96.02" r="58.05"/>
        <circle class="cls-10" cx="94.93" cy="95.95" r="58.03"/>
        <circle class="cls-78" cx="94.86" cy="95.88" r="58.01"/>
        <circle class="cls-45" cx="94.79" cy="95.81" r="57.99"/>
        <circle class="cls-70" cx="94.72" cy="95.74" r="57.98"/>
        <circle class="cls-102" cx="94.65" cy="95.67" r="57.96"/>
        <circle class="cls-83" cx="94.58" cy="95.6" r="57.94"/>
        <circle class="cls-87" cx="94.51" cy="95.53" r="57.92"/>
        <circle class="cls-56" cx="94.44" cy="95.46" r="57.9"/>
        <circle class="cls-49" cx="94.37" cy="95.39" r="57.88"/>
        <circle class="cls-61" cx="94.3" cy="95.32" r="57.86"/>
        <circle class="cls-41" cx="94.23" cy="95.25" r="57.85"/>
        <circle class="cls-67" cx="94.16" cy="95.18" r="57.83"/>
        <circle class="cls-84" cx="94.09" cy="95.11" r="57.81"/>
        <circle class="cls-89" cx="94.02" cy="95.04" r="57.79"/>
        <circle class="cls-99" cx="93.95" cy="94.97" r="57.77"/>
        <circle class="cls-9" cx="93.88" cy="94.9" r="57.75"/>
        <circle class="cls-43" cx="93.81" cy="94.83" r="57.73"/>
        <circle class="cls-43" cx="93.74" cy="94.76" r="57.72"/>
        <circle class="cls-65" cx="93.67" cy="94.69" r="57.7"/>
        <circle class="cls-93" cx="93.6" cy="94.62" r="57.68"/>
        <circle class="cls-91" cx="93.53" cy="94.55" r="57.66"/>
        <circle class="cls-13" cx="93.46" cy="94.48" r="57.64"/>
        <circle class="cls-37" cx="93.39" cy="94.41" r="57.62"/>
        <circle class="cls-81" cx="93.32" cy="94.34" r="57.61"/>
        <circle class="cls-82" cx="93.25" cy="94.27" r="57.59"/>
        <circle class="cls-26" cx="93.18" cy="94.2" r="57.57"/>
        <circle class="cls-69" cx="93.11" cy="94.12" r="57.55"/>
        <circle class="cls-23" cx="93.04" cy="94.05" r="57.53"/>
        <circle class="cls-6" cx="92.97" cy="93.98" r="57.51"/>
        <circle class="cls-77" cx="92.9" cy="93.91" r="57.49"/>
        <circle class="cls-40" cx="92.83" cy="93.84" r="57.48"/>
        <circle class="cls-44" cx="92.76" cy="93.77" r="57.46"/>
        <circle class="cls-4" cx="92.69" cy="93.7" r="57.44"/>
        <circle class="cls-66" cx="92.62" cy="93.63" r="57.42"/>
        <circle class="cls-27" cx="92.55" cy="93.56" r="57.4"/>
        <circle class="cls-15" cx="92.48" cy="93.49" r="57.38"/>
        <circle class="cls-39" cx="92.41" cy="93.42" r="57.36"/>
        <circle class="cls-32" cx="92.34" cy="93.35" r="57.35"/>
        <circle class="cls-29" cx="92.27" cy="93.28" r="57.33"/>
        <circle class="cls-5" cx="92.2" cy="93.21" r="57.31"/>
        <circle class="cls-68" cx="92.13" cy="93.14" r="57.29"/>
        <circle class="cls-94" cx="92.06" cy="93.07" r="57.27"/>
        <circle class="cls-38" cx="91.99" cy="93" r="57.25"/>
        <circle class="cls-11" cx="91.92" cy="92.93" r="57.23"/>
        <circle class="cls-55" cx="91.85" cy="92.86" r="57.22"/>
        <circle class="cls-57" cx="91.78" cy="92.79" r="57.2"/>
        <circle class="cls-95" cx="91.71" cy="92.72" r="57.18"/>
        <circle class="cls-34" cx="91.64" cy="92.65" r="57.16"/>
        <circle class="cls-105" cx="91.57" cy="92.58" r="57.14"/>
        <circle class="cls-75" cx="91.5" cy="92.51" r="57.12"/>
        <circle class="cls-96" cx="91.42" cy="92.44" r="57.11"/>
        <circle class="cls-101" cx="91.35" cy="92.37" r="57.09"/>
        <circle class="cls-85" cx="91.28" cy="92.3" r="57.07"/>
        <circle class="cls-72" cx="91.21" cy="92.23" r="57.05"/>
        <circle class="cls-25" cx="91.14" cy="92.16" r="57.03"/>
        <circle class="cls-74" cx="91.07" cy="92.09" r="57.01"/>
        <circle class="cls-71" cx="91" cy="92.02" r="56.99"/>
        <circle class="cls-104" cx="90.93" cy="91.95" r="56.98"/>
        <circle class="cls-2" cx="90.86" cy="91.88" r="56.96"/>
        <circle class="cls-63" cx="90.79" cy="91.81" r="56.94"/>
        <circle class="cls-47" cx="90.72" cy="91.74" r="56.92"/>
        <circle class="cls-51" cx="90.65" cy="91.67" r="56.9"/>
        <circle class="cls-52" cx="90.58" cy="91.6" r="56.88"/>
        <circle class="cls-24" cx="90.51" cy="91.53" r="56.86"/>
        <circle class="cls-54" cx="90.44" cy="91.46" r="56.85"/>
        <circle class="cls-22" cx="90.37" cy="91.39" r="56.83"/>
        <circle class="cls-33" cx="90.3" cy="91.32" r="56.81"/>
        <circle class="cls-76" cx="90.23" cy="91.25" r="56.79"/>
        <circle class="cls-1" cx="90.16" cy="91.18" r="56.77"/>
      </g>
      <circle class="cls-7" cx="90.12" cy="91.14" r="59.33"/>
      <circle class="cls-7" cx="90.12" cy="91.14" r="48.04"/>
      <path class="cls-62" d="M49.25,91.95v-.41c0-1.15.94-2.09,2.09-2.09h4.83c1.63-3.68,3.46-7.27,5.48-10.75,1.16-1.98,2.79-3.65,4.74-4.86,1.95-1.19,4.17-1.87,6.45-1.99,4.03-.22,8.01-.34,11.95-.34,3.94,0,7.93.11,11.96.34.89.05,1.77.19,2.64.4.12,1.2.27,2.38.45,3.53-1.05-.4-2.15-.64-3.27-.7-3.88-.22-7.81-.33-11.78-.33-3.97,0-7.9.11-11.78.33-1.75.09-3.44.62-4.94,1.53-1.5.93-2.75,2.22-3.65,3.75-1.95,3.3-3.79,7.07-5.52,10.9h46.9c2.75,3.82,6.51,7.07,11.55,9.6l1.32.66c.09.2.17.39.26.58.21.46.37.93.47,1.42.11.49.16.98.16,1.48v11.2c0,2.55-1.79,4.74-4.28,5.27v3.78c0,.64-.52,1.16-1.16,1.16h-8.6c-.64,0-1.16-.52-1.16-1.16v-3.66h-3.97v-1.74c.01-1.63-.57-3.21-1.63-4.44-1.03-1.23-2.56-1.95-4.16-1.96h-19.62c-1.62,0-3.16.73-4.19,1.99-1.05,1.28-1.62,2.88-1.61,4.54,0,.04,0,.08,0,.12l-.03,1.5h-3.95v3.67c0,.64-.52,1.16-1.16,1.16h-8.6c-.64,0-1.16-.52-1.16-1.16v-3.78c-2.49-.53-4.27-2.73-4.28-5.27v-11.2c0-.5.05-1,.16-1.48.1-.49.26-.97.47-1.42.79-1.79,1.51-3.44,2.25-5.14l.04-.09c-2.18-.64-3.67-2.64-3.68-4.9h0ZM101.63,106.42c0,2.63,5.19,3.2,7.21,2.54,1.38-.45,2.62-1.17,3.46-2.43,4.98-7.43-10.67-2.74-10.67-.1h0ZM72.56,106.8c0,1.53,1.49,2.79,3.32,2.79h17.82c1.83,0,3.32-1.25,3.32-2.79v-.58c0-2.41-2.33-4.37-5.19-4.37h-14.08c-2.85,0-5.19,1.96-5.19,4.37v.58ZM57.28,106.52c.85,1.26,2.09,1.98,3.46,2.43,2.03.66,7.21.09,7.21-2.54s-15.66-7.32-10.67.11h0ZM94.6,116.67h-19.62c-.68,0-1.31.31-1.74.84-.55.69-.84,1.56-.82,2.45,0,.06,0,.11,0,.17l-.03,1.45h24.76v-1.74c.01-.84-.28-1.67-.82-2.31-.43-.52-1.06-.83-1.74-.85h0ZM135.31,67.45c-.41,13.16-4.01,24.26-16.49,30.51-12.49-6.24-16.08-17.35-16.49-30.51,5.98-1.63,11.58-4.43,16.49-8.22,4.9,3.8,10.51,6.59,16.49,8.22ZM127.79,74.18c.63-.63.63-1.66,0-2.29-.63-.63-1.66-.63-2.29,0l-9.96,9.96-3.41-3.41c-.63-.63-1.66-.63-2.29,0-.63.63-.63,1.66,0,2.29h0l4.55,4.55c.64.63,1.66.63,2.29,0l11.1-11.11Z"/>
    </g>
  </g>
</svg>