<?xml version="1.0" encoding="UTF-8"?>
<svg xmlns="http://www.w3.org/2000/svg" viewBox="0 0 180 180">
  <defs>
    <style>
      .cls-1 {
        fill: #999;
      }

      .cls-1, .cls-2, .cls-3, .cls-4, .cls-5, .cls-6, .cls-7, .cls-8, .cls-9, .cls-10, .cls-11, .cls-12, .cls-13, .cls-14, .cls-15, .cls-16, .cls-17, .cls-18, .cls-19, .cls-20, .cls-21, .cls-22, .cls-23, .cls-24, .cls-25, .cls-26, .cls-27, .cls-28, .cls-29, .cls-30, .cls-31, .cls-32, .cls-33, .cls-34, .cls-35, .cls-36, .cls-37, .cls-38, .cls-39, .cls-40, .cls-41, .cls-42, .cls-43, .cls-44, .cls-45, .cls-46, .cls-47, .cls-48, .cls-49, .cls-50, .cls-51, .cls-52, .cls-53, .cls-54, .cls-55, .cls-56, .cls-57, .cls-58, .cls-59, .cls-60, .cls-61, .cls-62, .cls-63, .cls-64, .cls-65, .cls-66, .cls-67, .cls-68, .cls-69, .cls-70, .cls-71, .cls-72, .cls-73, .cls-74, .cls-75, .cls-76, .cls-77, .cls-78, .cls-79, .cls-80, .cls-81, .cls-82, .cls-83, .cls-84, .cls-85, .cls-86, .cls-87, .cls-88, .cls-89, .cls-90, .cls-91, .cls-92, .cls-93, .cls-94, .cls-95, .cls-96, .cls-97, .cls-98, .cls-99, .cls-100, .cls-101, .cls-102, .cls-103, .cls-104 {
        stroke-width: 0px;
      }

      .cls-2 {
        fill: #a3a3a3;
      }

      .cls-3 {
        fill: #e4e4e4;
      }

      .cls-4 {
        fill: #bdbdbd;
      }

      .cls-5 {
        fill: #b6b6b6;
      }

      .cls-6 {
        fill: #c1c1c1;
      }

      .cls-7 {
        fill: #45a049;
      }

      .cls-8 {
        fill: #fefefe;
      }

      .cls-9 {
        fill: #cdcdcd;
      }

      .cls-10 {
        fill: #dcdcdc;
      }

      .cls-11 {
        fill: #b2b2b2;
      }

      .cls-12 {
        fill: #f3f3f3;
      }

      .cls-13 {
        fill: #c8c8c8;
      }

      .cls-14 {
        fill: #e1e1e1;
      }

      .cls-15 {
        fill: #bababa;
      }

      .cls-16 {
        fill: #ececec;
      }

      .cls-17 {
        fill: #e6e6e6;
      }

      .cls-105 {
        isolation: isolate;
      }

      .cls-18 {
        fill: #e5e5e5;
      }

      .cls-19 {
        fill: #f7f7f7;
      }

      .cls-20 {
        fill: #e3e3e3;
      }

      .cls-21 {
        fill: #e0e0e0;
      }

      .cls-22 {
        fill: #9c9c9c;
      }

      .cls-23 {
        fill: #c2c2c2;
      }

      .cls-24 {
        fill: #9e9e9e;
      }

      .cls-25 {
        fill: #a7a7a7;
      }

      .cls-26 {
        fill: #c4c4c4;
      }

      .cls-27 {
        fill: #bbb;
      }

      .cls-28 {
        fill: #f5f5f5;
      }

      .cls-29 {
        fill: #b7b7b7;
      }

      .cls-30 {
        fill: #f0f0f0;
      }

      .cls-31 {
        fill: #dfdfdf;
      }

      .cls-32 {
        fill: #b8b8b8;
      }

      .cls-33 {
        fill: #9b9b9b;
      }

      .cls-34 {
        fill: #aeaeae;
      }

      .cls-35 {
        fill: #e9e9e9;
      }

      .cls-36 {
        fill: #ddd;
      }

      .cls-37 {
        fill: #c7c7c7;
      }

      .cls-38 {
        fill: #b3b3b3;
      }

      .cls-39 {
        fill: #b9b9b9;
      }

      .cls-40 {
        fill: #bfbfbf;
      }

      .cls-41 {
        fill: #d2d2d2;
      }

      .cls-42 {
        fill: #e7e7e7;
      }

      .cls-43 {
        fill: #ccc;
      }

      .cls-44 {
        fill: #bebebe;
      }

      .cls-45 {
        fill: #dadada;
      }

      .cls-46 {
        fill: #f6f6f6;
      }

      .cls-47 {
        fill: #a1a1a1;
      }

      .cls-48 {
        fill: #fff;
      }

      .cls-49 {
        fill: #d4d4d4;
      }

      .cls-50 {
        fill: #ededed;
      }

      .cls-51 {
        fill: #a0a0a0;
      }

      .cls-52 {
        fill: #9f9f9f;
      }

      .cls-53 {
        fill: #f8f8f8;
      }

      .cls-54 {
        fill: #9d9d9d;
      }

      .cls-55 {
        fill: #b1b1b1;
      }

      .cls-56 {
        fill: #d5d5d5;
      }

      .cls-57 {
        fill: #b0b0b0;
      }

      .cls-58 {
        fill: #dedede;
      }

      .cls-59 {
        fill: #fafafa;
      }

      .cls-60 {
        fill: #e2e2e2;
      }

      .cls-61 {
        fill: #d3d3d3;
      }

      .cls-62 {
        fill: #a2a2a2;
      }

      .cls-63 {
        fill: #eee;
      }

      .cls-64 {
        fill: #cbcbcb;
      }

      .cls-65 {
        fill: #bcbcbc;
      }

      .cls-66 {
        fill: #d1d1d1;
      }

      .cls-67 {
        fill: #b5b5b5;
      }

      .cls-68 {
        fill: #c3c3c3;
      }

      .cls-69 {
        fill: #d9d9d9;
      }

      .cls-70 {
        fill: #a5a5a5;
      }

      .cls-71 {
        fill: #a8a8a8;
      }

      .cls-72 {
        fill: #f4f4f4;
      }

      .cls-73 {
        fill: #a6a6a6;
      }

      .cls-74 {
        fill: #acacac;
      }

      .cls-75 {
        fill: #9a9a9a;
      }

      .cls-76 {
        fill: silver;
      }

      .cls-77 {
        fill: #dbdbdb;
      }

      .cls-78 {
        fill: #f1f1f1;
      }

      .cls-79 {
        fill: #ebebeb;
      }

      .cls-80 {
        fill: #c6c6c6;
      }

      .cls-81 {
        fill: #c5c5c5;
      }

      .cls-82 {
        fill: #d7d7d7;
      }

      .cls-83 {
        fill: #d0d0d0;
      }

      .cls-84 {
        fill: #a9a9a9;
      }

      .cls-85 {
        fill: #f9f9f9;
      }

      .cls-86 {
        fill: #d6d6d6;
      }

      .cls-87 {
        fill: #fbfbfb;
      }

      .cls-88 {
        fill: #cfcfcf;
      }

      .cls-89 {
        fill: #e8e8e8;
      }

      .cls-90 {
        fill: #c9c9c9;
      }

      .cls-91 {
        fill: #fdfdfd;
      }

      .cls-92 {
        fill: #cacaca;
      }

      .cls-93 {
        fill: #b4b4b4;
      }

      .cls-94 {
        fill: #afafaf;
      }

      .cls-95 {
        fill: #ababab;
      }

      .cls-96 {
        fill: #eaeaea;
      }

      .cls-97 {
        fill: #fcfcfc;
      }

      .cls-106 {
        mix-blend-mode: multiply;
      }

      .cls-98 {
        fill: #cecece;
      }

      .cls-99 {
        fill: #f2f2f2;
      }

      .cls-100 {
        fill: #aaa;
      }

      .cls-101 {
        fill: #d8d8d8;
      }

      .cls-102 {
        fill: #efefef;
      }

      .cls-103 {
        fill: #a4a4a4;
      }

      .cls-104 {
        fill: #adadad;
      }
    </style>
  </defs>
  <g class="cls-105">
    <g id="Layer_1" data-name="Layer 1">
      <path class="cls-1" d="M90,164.79c-41.2,0-74.71-33.52-74.71-74.71S48.8,15.37,90,15.37s74.71,33.52,74.71,74.71-33.52,74.71-74.71,74.71ZM90,16.46c-40.59,0-73.62,33.03-73.62,73.62s33.03,73.62,73.62,73.62,73.62-33.03,73.62-73.62S130.59,16.46,90,16.46Z"/>
      <path class="cls-43" d="M90,175.92c-22.93,0-44.48-8.93-60.7-25.14-16.21-16.21-25.14-37.77-25.14-60.7S13.09,45.6,29.3,29.38C45.52,13.17,67.07,4.24,90,4.24s44.48,8.93,60.7,25.14c16.21,16.21,25.14,37.77,25.14,60.7s-8.93,44.48-25.14,60.7c-16.21,16.21-37.77,25.14-60.7,25.14ZM90,5.34C43.27,5.34,5.26,43.35,5.26,90.08s38.02,84.74,84.74,84.74,84.74-38.02,84.74-84.74S136.73,5.34,90,5.34Z"/>
      <g class="cls-106">
        <circle class="cls-48" cx="97.39" cy="97.35" r="58.68"/>
        <circle class="cls-8" cx="97.32" cy="97.28" r="58.66"/>
        <circle class="cls-91" cx="97.25" cy="97.21" r="58.64"/>
        <circle class="cls-97" cx="97.18" cy="97.14" r="58.62"/>
        <circle class="cls-87" cx="97.11" cy="97.07" r="58.61"/>
        <circle class="cls-59" cx="97.04" cy="97" r="58.59"/>
        <circle class="cls-85" cx="96.97" cy="96.93" r="58.57"/>
        <circle class="cls-53" cx="96.9" cy="96.86" r="58.55"/>
        <circle class="cls-19" cx="96.83" cy="96.79" r="58.53"/>
        <circle class="cls-46" cx="96.76" cy="96.72" r="58.51"/>
        <circle class="cls-28" cx="96.69" cy="96.65" r="58.49"/>
        <circle class="cls-72" cx="96.62" cy="96.58" r="58.48"/>
        <circle class="cls-12" cx="96.55" cy="96.51" r="58.46"/>
        <circle class="cls-99" cx="96.48" cy="96.44" r="58.44"/>
        <circle class="cls-78" cx="96.41" cy="96.37" r="58.42"/>
        <circle class="cls-30" cx="96.34" cy="96.29" r="58.4"/>
        <circle class="cls-102" cx="96.27" cy="96.22" r="58.38"/>
        <circle class="cls-63" cx="96.2" cy="96.15" r="58.36"/>
        <circle class="cls-50" cx="96.13" cy="96.08" r="58.35"/>
        <circle class="cls-16" cx="96.06" cy="96.01" r="58.33"/>
        <circle class="cls-79" cx="95.99" cy="95.94" r="58.31"/>
        <circle class="cls-96" cx="95.92" cy="95.87" r="58.29"/>
        <circle class="cls-35" cx="95.85" cy="95.8" r="58.27"/>
        <circle class="cls-89" cx="95.77" cy="95.73" r="58.25"/>
        <circle class="cls-42" cx="95.7" cy="95.66" r="58.23"/>
        <circle class="cls-17" cx="95.63" cy="95.59" r="58.22"/>
        <circle class="cls-18" cx="95.56" cy="95.52" r="58.2"/>
        <circle class="cls-3" cx="95.49" cy="95.45" r="58.18"/>
        <circle class="cls-20" cx="95.42" cy="95.38" r="58.16"/>
        <circle class="cls-60" cx="95.35" cy="95.31" r="58.14"/>
        <circle class="cls-14" cx="95.28" cy="95.24" r="58.12"/>
        <circle class="cls-21" cx="95.21" cy="95.17" r="58.11"/>
        <circle class="cls-31" cx="95.14" cy="95.1" r="58.09"/>
        <circle class="cls-58" cx="95.07" cy="95.03" r="58.07"/>
        <circle class="cls-36" cx="95" cy="94.96" r="58.05"/>
        <circle class="cls-10" cx="94.93" cy="94.89" r="58.03"/>
        <circle class="cls-77" cx="94.86" cy="94.82" r="58.01"/>
        <circle class="cls-45" cx="94.79" cy="94.75" r="57.99"/>
        <circle class="cls-69" cx="94.72" cy="94.68" r="57.98"/>
        <circle class="cls-101" cx="94.65" cy="94.61" r="57.96"/>
        <circle class="cls-82" cx="94.58" cy="94.54" r="57.94"/>
        <circle class="cls-86" cx="94.51" cy="94.47" r="57.92"/>
        <circle class="cls-56" cx="94.44" cy="94.4" r="57.9"/>
        <circle class="cls-49" cx="94.37" cy="94.33" r="57.88"/>
        <circle class="cls-61" cx="94.3" cy="94.26" r="57.86"/>
        <circle class="cls-41" cx="94.23" cy="94.19" r="57.85"/>
        <circle class="cls-66" cx="94.16" cy="94.12" r="57.83"/>
        <circle class="cls-83" cx="94.09" cy="94.05" r="57.81"/>
        <circle class="cls-88" cx="94.02" cy="93.98" r="57.79"/>
        <circle class="cls-98" cx="93.95" cy="93.91" r="57.77"/>
        <circle class="cls-9" cx="93.88" cy="93.84" r="57.75"/>
        <circle class="cls-43" cx="93.81" cy="93.77" r="57.73"/>
        <circle class="cls-43" cx="93.74" cy="93.7" r="57.72"/>
        <circle class="cls-64" cx="93.67" cy="93.63" r="57.7"/>
        <circle class="cls-92" cx="93.6" cy="93.56" r="57.68"/>
        <circle class="cls-90" cx="93.53" cy="93.49" r="57.66"/>
        <circle class="cls-13" cx="93.46" cy="93.42" r="57.64"/>
        <circle class="cls-37" cx="93.39" cy="93.35" r="57.62"/>
        <circle class="cls-80" cx="93.32" cy="93.28" r="57.61"/>
        <circle class="cls-81" cx="93.25" cy="93.21" r="57.59"/>
        <circle class="cls-26" cx="93.18" cy="93.14" r="57.57"/>
        <circle class="cls-68" cx="93.11" cy="93.07" r="57.55"/>
        <circle class="cls-23" cx="93.04" cy="93" r="57.53"/>
        <circle class="cls-6" cx="92.97" cy="92.93" r="57.51"/>
        <circle class="cls-76" cx="92.9" cy="92.86" r="57.49"/>
        <circle class="cls-40" cx="92.83" cy="92.79" r="57.48"/>
        <circle class="cls-44" cx="92.76" cy="92.72" r="57.46"/>
        <circle class="cls-4" cx="92.69" cy="92.65" r="57.44"/>
        <circle class="cls-65" cx="92.62" cy="92.58" r="57.42"/>
        <circle class="cls-27" cx="92.55" cy="92.51" r="57.4"/>
        <circle class="cls-15" cx="92.48" cy="92.44" r="57.38"/>
        <circle class="cls-39" cx="92.41" cy="92.37" r="57.36"/>
        <circle class="cls-32" cx="92.34" cy="92.3" r="57.35"/>
        <circle class="cls-29" cx="92.27" cy="92.23" r="57.33"/>
        <circle class="cls-5" cx="92.2" cy="92.16" r="57.31"/>
        <circle class="cls-67" cx="92.13" cy="92.09" r="57.29"/>
        <circle class="cls-93" cx="92.06" cy="92.02" r="57.27"/>
        <circle class="cls-38" cx="91.99" cy="91.94" r="57.25"/>
        <circle class="cls-11" cx="91.92" cy="91.87" r="57.23"/>
        <circle class="cls-55" cx="91.85" cy="91.8" r="57.22"/>
        <circle class="cls-57" cx="91.78" cy="91.73" r="57.2"/>
        <circle class="cls-94" cx="91.71" cy="91.66" r="57.18"/>
        <circle class="cls-34" cx="91.64" cy="91.59" r="57.16"/>
        <circle class="cls-104" cx="91.57" cy="91.52" r="57.14"/>
        <circle class="cls-74" cx="91.5" cy="91.45" r="57.12"/>
        <circle class="cls-95" cx="91.42" cy="91.38" r="57.11"/>
        <circle class="cls-100" cx="91.35" cy="91.31" r="57.09"/>
        <circle class="cls-84" cx="91.28" cy="91.24" r="57.07"/>
        <circle class="cls-71" cx="91.21" cy="91.17" r="57.05"/>
        <circle class="cls-25" cx="91.14" cy="91.1" r="57.03"/>
        <circle class="cls-73" cx="91.07" cy="91.03" r="57.01"/>
        <circle class="cls-70" cx="91" cy="90.96" r="56.99"/>
        <circle class="cls-103" cx="90.93" cy="90.89" r="56.98"/>
        <circle class="cls-2" cx="90.86" cy="90.82" r="56.96"/>
        <circle class="cls-62" cx="90.79" cy="90.75" r="56.94"/>
        <circle class="cls-47" cx="90.72" cy="90.68" r="56.92"/>
        <circle class="cls-51" cx="90.65" cy="90.61" r="56.9"/>
        <circle class="cls-52" cx="90.58" cy="90.54" r="56.88"/>
        <circle class="cls-24" cx="90.51" cy="90.47" r="56.86"/>
        <circle class="cls-54" cx="90.44" cy="90.4" r="56.85"/>
        <circle class="cls-22" cx="90.37" cy="90.33" r="56.83"/>
        <circle class="cls-33" cx="90.3" cy="90.26" r="56.81"/>
        <circle class="cls-75" cx="90.23" cy="90.19" r="56.79"/>
        <circle class="cls-1" cx="90.16" cy="90.12" r="56.77"/>
      </g>
      <circle class="cls-7" cx="90.12" cy="90.08" r="59.33"/>
      <circle class="cls-7" cx="90.12" cy="90.08" r="48.04"/>
      <path class="cls-48" d="M85.09,117.77c.03.05.05.12.05.18l2.22,11.05h6.24l2.24-11.07c.02-.05.03-.12.05-.18l5.6-13.41h-22l5.6,13.43ZM86.11,107.22c0-.97.79-1.76,1.76-1.76h5.35c.97,0,1.76.79,1.76,1.76v6.87c0,.97-.79,1.76-1.76,1.76h-5.35c-.97,0-1.76-.79-1.76-1.76v-6.87ZM103.29,84.57c-5.3,9.78,4.15,21.2,14.73,17.96v-.02c8.18-2.34,11.65-12.89,6.37-19.53v-.02c-5.28-7.29-16.97-6.39-21.1,1.61h0ZM114.36,86.82c4.2.12,4.18,6.24,0,6.34-4.18-.1-4.2-6.24,0-6.34ZM124.68,90.5c0,4.78-3.38,9.01-8.04,10.07-.57.13-1.17-.32-1.15-.92v-5.12c-.05-.54.57-.87.79-1.25l1.92-3.34c.22-.35.25-.89.7-1.05l4.05-1.91c1.79-.62,1.62,2.47,1.74,3.53h0ZM106.77,83.53c3.91-4.46,11.34-4.43,15.23.05.43.43.27,1.25-.3,1.49-.22.07-4,1.96-4.15,1.86-.43-.03-.92-.35-1.29-.3h-3.85c-.47-.05-1.1.45-1.62.18l-3.76-1.77c-.55-.25-.7-1.05-.27-1.5ZM105.8,86.91l4,1.89c.47.2.5.75.72,1.12l1.92,3.36c.2.35.85.72.8,1.24v5.12c.02.59-.59,1.05-1.15.92-5.72-1.2-9.41-7.49-7.61-13.08.17-.54.82-.8,1.32-.57h0ZM131.37,87.24v6.24c0,4.95-4,8.96-8.95,9,5.99-3.93,8.19-12.41,4.72-18.71l1.69.33c1.47.3,2.54,1.62,2.54,3.14h0ZM58.82,93.56h24.06v4.45c0,.33-.27.6-.6.6h-22.87c-.33,0-.6-.27-.6-.6v-4.45h.02ZM49.6,93.56h7.31v4.45c0,1.37,1.12,2.49,2.49,2.49h22.87c1.37,0,2.49-1.12,2.49-2.49v-4.45h15.48c.79,3.61,2.99,6.84,6.04,8.91h-47.69c-4.93,0-8.95-4-9-8.91h0ZM49.6,89.33h50.35c-.03.38-.05.77-.05,1.15s.02.79.05,1.17c-13.76-.02-36.55-.08-50.35,0v-2.32ZM49.6,87.44c-.08-1.57.99-3.03,2.54-3.34l16.99-3.44c11.87-2.41,23.93-2.81,35.88-1.15-2.37,2.04-4.13,4.9-4.77,7.96h-50.65v-.02ZM106.04,89.11l2.59,1.22c.08.3,2.01,3.53,2.17,3.9.13.23.32.47.55.7v3.44c-3.65-1.37-6-5.35-5.32-9.26h0ZM111.27,84.92l-2.16-1c2.98-2.46,7.57-2.44,10.53.03l-2.12,1c-.42-.15-.84-.22-1.25-.22-.89.05-4.18-.15-5,.18ZM117.37,94.93c.65-.75,2.22-3.63,2.69-4.51l2.63-1.24c.08.45.1.89.1,1.32,0,3.51-2.22,6.64-5.42,7.88v-3.44ZM93.08,113.98h-5.08v-6.6h5.08v6.6ZM115.65,89.98c-.03,1.69-2.54,1.69-2.58,0,.03-1.67,2.54-1.67,2.58,0ZM132.2,57.34c-13.46-1.79-27.14-2.71-40.73-2.74v1.3h-1.89v-1.3c-13.63.02-27.39.97-40.92,2.74-.47,0-.89-.35-.94-.82-.08-.52.3-.99.8-1.05,27.81-3.7,56.12-3.7,83.92,0,1.22.17.95,2.02-.25,1.87ZM83.26,61.02c-.25,0-.45-.2-.45-.45v-2.34c0-.25.2-.45.45-.45h14.55c.25,0,.45.2.45.45v2.36c0,.25-.2.45-.45.45h-14.55v-.02ZM116.45,114.03h4.06c2.24,0,4.08,1.82,4.08,4.08v1.17h-12.22v-1.17c0-2.26,1.82-4.08,4.08-4.08h0ZM131.37,124.36v4.65h-25.8v-4.65c0-1.76,1.44-3.19,3.19-3.19h19.41c1.77,0,3.19,1.44,3.19,3.19h0ZM64.54,114.03c2.24,0,4.08,1.82,4.08,4.08v1.17h-12.21v-1.17c0-2.26,1.84-4.08,4.08-4.08h4.05ZM75.42,124.36v4.65h-25.82v-4.65c0-1.76,1.44-3.19,3.19-3.19h19.41c1.77,0,3.21,1.44,3.21,3.19ZM54.52,72.83c0,1.24,1.89,1.24,1.89,0,0-2.14,1.74-3.88,3.88-3.88,1.24,0,1.24-1.89,0-1.89-2.14,0-3.88-1.74-3.88-3.88,0-1.24-1.89-1.24-1.89,0,0,2.14-1.74,3.88-3.88,3.88-1.24,0-1.24,1.89,0,1.89,2.14,0,3.88,1.74,3.88,3.88ZM55.46,66.34c.43.65,1,1.22,1.66,1.66-.65.43-1.22,1-1.66,1.66-.43-.65-1-1.22-1.66-1.66.65-.42,1.22-.99,1.66-1.66ZM114.63,66.79c0,1.24,1.89,1.24,1.89,0,0-1.67,1.35-3.03,3.03-3.03,1.24,0,1.24-1.89,0-1.89-1.67,0-3.03-1.35-3.03-3.03,0-1.24-1.89-1.24-1.89,0,0,1.67-1.35,3.03-3.03,3.03-1.24,0-1.24,1.89,0,1.89,1.67,0,3.03,1.35,3.03,3.03ZM115.58,61.74c.3.42.67.77,1.07,1.07-.42.3-.77.67-1.07,1.07-.3-.42-.67-.77-1.07-1.07.4-.28.77-.65,1.07-1.07ZM78.06,110.87c-1.25,0-2.27-1.02-2.27-2.27,0-.52-.42-.94-.94-.94s-.94.42-.94.94c0,1.25-1.02,2.27-2.27,2.27-1.24.02-1.24,1.87,0,1.89,1.25,0,2.27,1.02,2.27,2.27.02,1.24,1.87,1.24,1.89,0,0-1.25,1.02-2.27,2.27-2.27,1.22-.02,1.22-1.86-.02-1.89h0ZM74.84,112.39c-.17-.2-.37-.4-.57-.57.2-.18.4-.37.57-.59.17.22.37.4.59.59-.22.17-.4.37-.59.57Z"/>
    </g>
  </g>
</svg>