<?xml version="1.0" encoding="UTF-8"?>
<svg xmlns="http://www.w3.org/2000/svg" viewBox="0 0 180 180">
  <defs>
    <style>
      .cls-1 {
        fill: #999;
      }

      .cls-1, .cls-2, .cls-3, .cls-4, .cls-5, .cls-6, .cls-7, .cls-8, .cls-9, .cls-10, .cls-11, .cls-12, .cls-13, .cls-14, .cls-15, .cls-16, .cls-17, .cls-18, .cls-19, .cls-20, .cls-21, .cls-22, .cls-23, .cls-24, .cls-25, .cls-26, .cls-27, .cls-28, .cls-29, .cls-30, .cls-31, .cls-32, .cls-33, .cls-34, .cls-35, .cls-36, .cls-37, .cls-38, .cls-39, .cls-40, .cls-41, .cls-42, .cls-43, .cls-44, .cls-45, .cls-46, .cls-47, .cls-48, .cls-49, .cls-50, .cls-51, .cls-52, .cls-53, .cls-54, .cls-55, .cls-56, .cls-57, .cls-58, .cls-59, .cls-60, .cls-61, .cls-62, .cls-63, .cls-64, .cls-65, .cls-66, .cls-67, .cls-68, .cls-69, .cls-70, .cls-71, .cls-72, .cls-73, .cls-74, .cls-75, .cls-76, .cls-77, .cls-78, .cls-79, .cls-80, .cls-81, .cls-82, .cls-83, .cls-84, .cls-85, .cls-86, .cls-87, .cls-88, .cls-89, .cls-90, .cls-91, .cls-92, .cls-93, .cls-94, .cls-95, .cls-96, .cls-97, .cls-98, .cls-99, .cls-100, .cls-101, .cls-102, .cls-103, .cls-104, .cls-105 {
        stroke-width: 0px;
      }

      .cls-2 {
        fill: #a3a3a3;
      }

      .cls-3 {
        fill: #e4e4e4;
      }

      .cls-4 {
        fill: #bdbdbd;
      }

      .cls-5 {
        fill: #b6b6b6;
      }

      .cls-6 {
        fill: #c1c1c1;
      }

      .cls-7 {
        fill: #45a049;
      }

      .cls-8 {
        fill: #fefefe;
      }

      .cls-9 {
        fill: #cdcdcd;
      }

      .cls-10 {
        fill: #dcdcdc;
      }

      .cls-11 {
        fill: #b2b2b2;
      }

      .cls-12 {
        fill: #f3f3f3;
      }

      .cls-13 {
        fill: #c8c8c8;
      }

      .cls-14 {
        fill: #e1e1e1;
      }

      .cls-15 {
        fill: #bababa;
      }

      .cls-16 {
        fill: #ececec;
      }

      .cls-17 {
        fill: #e6e6e6;
      }

      .cls-106 {
        isolation: isolate;
      }

      .cls-18 {
        fill: #e5e5e5;
      }

      .cls-19 {
        fill: #f7f7f7;
      }

      .cls-20 {
        fill: #e3e3e3;
      }

      .cls-21 {
        fill: #e0e0e0;
      }

      .cls-22 {
        fill: #9c9c9c;
      }

      .cls-23 {
        fill: #c2c2c2;
      }

      .cls-24 {
        fill: #9e9e9e;
      }

      .cls-25 {
        fill: #a7a7a7;
      }

      .cls-26 {
        fill: #c4c4c4;
      }

      .cls-27 {
        fill: #bbb;
      }

      .cls-28 {
        fill: #f5f5f5;
      }

      .cls-29 {
        fill: #b7b7b7;
      }

      .cls-30 {
        fill: #f0f0f0;
      }

      .cls-31 {
        fill: #dfdfdf;
      }

      .cls-32 {
        fill: #b8b8b8;
      }

      .cls-33 {
        fill: #9b9b9b;
      }

      .cls-34 {
        fill: #aeaeae;
      }

      .cls-35 {
        fill: #e9e9e9;
      }

      .cls-36 {
        fill: #ddd;
      }

      .cls-37 {
        fill: #c7c7c7;
      }

      .cls-38 {
        fill: #b3b3b3;
      }

      .cls-39 {
        fill: #b9b9b9;
      }

      .cls-40 {
        fill: #bfbfbf;
      }

      .cls-41 {
        fill: #d2d2d2;
      }

      .cls-42 {
        fill: #e7e7e7;
      }

      .cls-43 {
        fill: #ccc;
      }

      .cls-44 {
        fill: #bebebe;
      }

      .cls-45 {
        fill: #dadada;
      }

      .cls-46 {
        fill: #f6f6f6;
      }

      .cls-47 {
        fill: #a1a1a1;
      }

      .cls-48, .cls-62 {
        fill: #fff;
      }

      .cls-49 {
        fill: #d4d4d4;
      }

      .cls-50 {
        fill: #ededed;
      }

      .cls-51 {
        fill: #a0a0a0;
      }

      .cls-52 {
        fill: #9f9f9f;
      }

      .cls-53 {
        fill: #f8f8f8;
      }

      .cls-54 {
        fill: #9d9d9d;
      }

      .cls-55 {
        fill: #b1b1b1;
      }

      .cls-56 {
        fill: #d5d5d5;
      }

      .cls-57 {
        fill: #b0b0b0;
      }

      .cls-58 {
        fill: #dedede;
      }

      .cls-59 {
        fill: #fafafa;
      }

      .cls-60 {
        fill: #e2e2e2;
      }

      .cls-61 {
        fill: #d3d3d3;
      }

      .cls-62 {
        fill-rule: evenodd;
      }

      .cls-63 {
        fill: #a2a2a2;
      }

      .cls-64 {
        fill: #eee;
      }

      .cls-65 {
        fill: #cbcbcb;
      }

      .cls-66 {
        fill: #bcbcbc;
      }

      .cls-67 {
        fill: #d1d1d1;
      }

      .cls-68 {
        fill: #b5b5b5;
      }

      .cls-69 {
        fill: #c3c3c3;
      }

      .cls-70 {
        fill: #d9d9d9;
      }

      .cls-71 {
        fill: #a5a5a5;
      }

      .cls-72 {
        fill: #a8a8a8;
      }

      .cls-73 {
        fill: #f4f4f4;
      }

      .cls-74 {
        fill: #a6a6a6;
      }

      .cls-75 {
        fill: #acacac;
      }

      .cls-76 {
        fill: #9a9a9a;
      }

      .cls-77 {
        fill: silver;
      }

      .cls-78 {
        fill: #dbdbdb;
      }

      .cls-79 {
        fill: #f1f1f1;
      }

      .cls-80 {
        fill: #ebebeb;
      }

      .cls-81 {
        fill: #c6c6c6;
      }

      .cls-82 {
        fill: #c5c5c5;
      }

      .cls-83 {
        fill: #d7d7d7;
      }

      .cls-84 {
        fill: #d0d0d0;
      }

      .cls-85 {
        fill: #a9a9a9;
      }

      .cls-86 {
        fill: #f9f9f9;
      }

      .cls-87 {
        fill: #d6d6d6;
      }

      .cls-88 {
        fill: #fbfbfb;
      }

      .cls-89 {
        fill: #cfcfcf;
      }

      .cls-90 {
        fill: #e8e8e8;
      }

      .cls-91 {
        fill: #c9c9c9;
      }

      .cls-92 {
        fill: #fdfdfd;
      }

      .cls-93 {
        fill: #cacaca;
      }

      .cls-94 {
        fill: #b4b4b4;
      }

      .cls-95 {
        fill: #afafaf;
      }

      .cls-96 {
        fill: #ababab;
      }

      .cls-97 {
        fill: #eaeaea;
      }

      .cls-98 {
        fill: #fcfcfc;
      }

      .cls-107 {
        mix-blend-mode: multiply;
      }

      .cls-99 {
        fill: #cecece;
      }

      .cls-100 {
        fill: #f2f2f2;
      }

      .cls-101 {
        fill: #aaa;
      }

      .cls-102 {
        fill: #d8d8d8;
      }

      .cls-103 {
        fill: #efefef;
      }

      .cls-104 {
        fill: #a4a4a4;
      }

      .cls-105 {
        fill: #adadad;
      }
    </style>
  </defs>
  <g class="cls-106">
    <g id="Layer_1" data-name="Layer 1">
      <path class="cls-1" d="M90,165.28c-41.2,0-74.71-33.52-74.71-74.71S48.8,15.85,90,15.85s74.71,33.52,74.71,74.71-33.52,74.71-74.71,74.71ZM90,16.95c-40.59,0-73.62,33.03-73.62,73.62s33.03,73.62,73.62,73.62,73.62-33.03,73.62-73.62S130.59,16.95,90,16.95Z"/>
      <path class="cls-43" d="M90,176.41c-22.93,0-44.48-8.93-60.7-25.14-16.21-16.21-25.14-37.77-25.14-60.7S13.09,46.08,29.3,29.87C45.52,13.66,67.07,4.73,90,4.73s44.48,8.93,60.7,25.14c16.21,16.21,25.14,37.77,25.14,60.7s-8.93,44.48-25.14,60.7c-16.21,16.21-37.77,25.14-60.7,25.14ZM90,5.83C43.27,5.83,5.26,43.84,5.26,90.57s38.02,84.74,84.74,84.74,84.74-38.02,84.74-84.74S136.73,5.83,90,5.83Z"/>
      <g class="cls-107">
        <circle class="cls-48" cx="97.39" cy="97.84" r="58.68"/>
        <circle class="cls-8" cx="97.32" cy="97.77" r="58.66"/>
        <circle class="cls-92" cx="97.25" cy="97.7" r="58.64"/>
        <circle class="cls-98" cx="97.18" cy="97.63" r="58.62"/>
        <circle class="cls-88" cx="97.11" cy="97.56" r="58.61"/>
        <circle class="cls-59" cx="97.04" cy="97.48" r="58.59"/>
        <circle class="cls-86" cx="96.97" cy="97.41" r="58.57"/>
        <circle class="cls-53" cx="96.9" cy="97.34" r="58.55"/>
        <circle class="cls-19" cx="96.83" cy="97.27" r="58.53"/>
        <circle class="cls-46" cx="96.76" cy="97.2" r="58.51"/>
        <circle class="cls-28" cx="96.69" cy="97.13" r="58.49"/>
        <circle class="cls-73" cx="96.62" cy="97.06" r="58.48"/>
        <circle class="cls-12" cx="96.55" cy="96.99" r="58.46"/>
        <circle class="cls-100" cx="96.48" cy="96.92" r="58.44"/>
        <circle class="cls-79" cx="96.41" cy="96.85" r="58.42"/>
        <circle class="cls-30" cx="96.34" cy="96.78" r="58.4"/>
        <circle class="cls-103" cx="96.27" cy="96.71" r="58.38"/>
        <circle class="cls-64" cx="96.2" cy="96.64" r="58.36"/>
        <circle class="cls-50" cx="96.13" cy="96.57" r="58.35"/>
        <circle class="cls-16" cx="96.06" cy="96.5" r="58.33"/>
        <circle class="cls-80" cx="95.99" cy="96.43" r="58.31"/>
        <circle class="cls-97" cx="95.92" cy="96.36" r="58.29"/>
        <circle class="cls-35" cx="95.85" cy="96.29" r="58.27"/>
        <circle class="cls-90" cx="95.77" cy="96.22" r="58.25"/>
        <circle class="cls-42" cx="95.7" cy="96.15" r="58.23"/>
        <circle class="cls-17" cx="95.63" cy="96.08" r="58.22"/>
        <circle class="cls-18" cx="95.56" cy="96.01" r="58.2"/>
        <circle class="cls-3" cx="95.49" cy="95.94" r="58.18"/>
        <circle class="cls-20" cx="95.42" cy="95.87" r="58.16"/>
        <circle class="cls-60" cx="95.35" cy="95.8" r="58.14"/>
        <circle class="cls-14" cx="95.28" cy="95.73" r="58.12"/>
        <circle class="cls-21" cx="95.21" cy="95.66" r="58.11"/>
        <circle class="cls-31" cx="95.14" cy="95.59" r="58.09"/>
        <circle class="cls-58" cx="95.07" cy="95.52" r="58.07"/>
        <circle class="cls-36" cx="95" cy="95.45" r="58.05"/>
        <circle class="cls-10" cx="94.93" cy="95.38" r="58.03"/>
        <circle class="cls-78" cx="94.86" cy="95.31" r="58.01"/>
        <circle class="cls-45" cx="94.79" cy="95.24" r="57.99"/>
        <circle class="cls-70" cx="94.72" cy="95.17" r="57.98"/>
        <circle class="cls-102" cx="94.65" cy="95.1" r="57.96"/>
        <circle class="cls-83" cx="94.58" cy="95.03" r="57.94"/>
        <circle class="cls-87" cx="94.51" cy="94.96" r="57.92"/>
        <circle class="cls-56" cx="94.44" cy="94.89" r="57.9"/>
        <circle class="cls-49" cx="94.37" cy="94.82" r="57.88"/>
        <circle class="cls-61" cx="94.3" cy="94.75" r="57.86"/>
        <circle class="cls-41" cx="94.23" cy="94.68" r="57.85"/>
        <circle class="cls-67" cx="94.16" cy="94.61" r="57.83"/>
        <circle class="cls-84" cx="94.09" cy="94.54" r="57.81"/>
        <circle class="cls-89" cx="94.02" cy="94.47" r="57.79"/>
        <circle class="cls-99" cx="93.95" cy="94.4" r="57.77"/>
        <circle class="cls-9" cx="93.88" cy="94.33" r="57.75"/>
        <circle class="cls-43" cx="93.81" cy="94.26" r="57.73"/>
        <circle class="cls-43" cx="93.74" cy="94.19" r="57.72"/>
        <circle class="cls-65" cx="93.67" cy="94.12" r="57.7"/>
        <circle class="cls-93" cx="93.6" cy="94.05" r="57.68"/>
        <circle class="cls-91" cx="93.53" cy="93.98" r="57.66"/>
        <circle class="cls-13" cx="93.46" cy="93.91" r="57.64"/>
        <circle class="cls-37" cx="93.39" cy="93.84" r="57.62"/>
        <circle class="cls-81" cx="93.32" cy="93.77" r="57.61"/>
        <circle class="cls-82" cx="93.25" cy="93.7" r="57.59"/>
        <circle class="cls-26" cx="93.18" cy="93.63" r="57.57"/>
        <circle class="cls-69" cx="93.11" cy="93.56" r="57.55"/>
        <circle class="cls-23" cx="93.04" cy="93.49" r="57.53"/>
        <circle class="cls-6" cx="92.97" cy="93.42" r="57.51"/>
        <circle class="cls-77" cx="92.9" cy="93.35" r="57.49"/>
        <circle class="cls-40" cx="92.83" cy="93.28" r="57.48"/>
        <circle class="cls-44" cx="92.76" cy="93.21" r="57.46"/>
        <circle class="cls-4" cx="92.69" cy="93.14" r="57.44"/>
        <circle class="cls-66" cx="92.62" cy="93.06" r="57.42"/>
        <circle class="cls-27" cx="92.55" cy="92.99" r="57.4"/>
        <circle class="cls-15" cx="92.48" cy="92.92" r="57.38"/>
        <circle class="cls-39" cx="92.41" cy="92.85" r="57.36"/>
        <circle class="cls-32" cx="92.34" cy="92.78" r="57.35"/>
        <circle class="cls-29" cx="92.27" cy="92.71" r="57.33"/>
        <circle class="cls-5" cx="92.2" cy="92.64" r="57.31"/>
        <circle class="cls-68" cx="92.13" cy="92.57" r="57.29"/>
        <circle class="cls-94" cx="92.06" cy="92.5" r="57.27"/>
        <circle class="cls-38" cx="91.99" cy="92.43" r="57.25"/>
        <circle class="cls-11" cx="91.92" cy="92.36" r="57.23"/>
        <circle class="cls-55" cx="91.85" cy="92.29" r="57.22"/>
        <circle class="cls-57" cx="91.78" cy="92.22" r="57.2"/>
        <circle class="cls-95" cx="91.71" cy="92.15" r="57.18"/>
        <circle class="cls-34" cx="91.64" cy="92.08" r="57.16"/>
        <circle class="cls-105" cx="91.57" cy="92.01" r="57.14"/>
        <circle class="cls-75" cx="91.5" cy="91.94" r="57.12"/>
        <circle class="cls-96" cx="91.42" cy="91.87" r="57.11"/>
        <circle class="cls-101" cx="91.35" cy="91.8" r="57.09"/>
        <circle class="cls-85" cx="91.28" cy="91.73" r="57.07"/>
        <circle class="cls-72" cx="91.21" cy="91.66" r="57.05"/>
        <circle class="cls-25" cx="91.14" cy="91.59" r="57.03"/>
        <circle class="cls-74" cx="91.07" cy="91.52" r="57.01"/>
        <circle class="cls-71" cx="91" cy="91.45" r="56.99"/>
        <circle class="cls-104" cx="90.93" cy="91.38" r="56.98"/>
        <circle class="cls-2" cx="90.86" cy="91.31" r="56.96"/>
        <circle class="cls-63" cx="90.79" cy="91.24" r="56.94"/>
        <circle class="cls-47" cx="90.72" cy="91.17" r="56.92"/>
        <circle class="cls-51" cx="90.65" cy="91.1" r="56.9"/>
        <circle class="cls-52" cx="90.58" cy="91.03" r="56.88"/>
        <circle class="cls-24" cx="90.51" cy="90.96" r="56.86"/>
        <circle class="cls-54" cx="90.44" cy="90.89" r="56.85"/>
        <circle class="cls-22" cx="90.37" cy="90.82" r="56.83"/>
        <circle class="cls-33" cx="90.3" cy="90.75" r="56.81"/>
        <circle class="cls-76" cx="90.23" cy="90.68" r="56.79"/>
        <circle class="cls-1" cx="90.16" cy="90.61" r="56.77"/>
      </g>
      <circle class="cls-7" cx="90.12" cy="90.57" r="59.33"/>
      <circle class="cls-7" cx="90.12" cy="90.57" r="48.04"/>
      <path class="cls-62" d="M73.67,122.67c2.42,1.35,4.96,2.39,7.57,3.13l1.62,6.06c.4,1.47,1.69,2.46,3.21,2.46h9.66c1.53,0,2.82-.99,3.21-2.46l1.63-6.06c2.61-.74,5.15-1.79,7.57-3.13l5.43,3.13c1.32.77,2.93.55,4.01-.52l6.83-6.83c1.08-1.08,1.29-2.69.52-4.01l-3.13-5.43c1.35-2.41,2.39-4.96,3.13-7.57l6.06-1.63c1.47-.39,2.46-1.68,2.46-3.21v-9.66c0-1.53-.99-2.82-2.46-3.21l-6.06-1.62c-.54-1.92-1.26-3.81-2.13-5.64l-8.75,8.75c2.29,8.11.25,17.19-6.14,23.58-9.4,9.4-24.64,9.4-34.04,0-9.4-9.4-9.4-24.64,0-34.04,6.39-6.39,15.46-8.43,23.58-6.15l8.75-8.75c-1.82-.87-3.71-1.58-5.64-2.13l-1.63-6.06c-.39-1.47-1.68-2.46-3.21-2.46h-9.66c-1.53,0-2.82.99-3.21,2.46l-1.62,6.06c-2.61.74-5.15,1.79-7.57,3.13l-5.43-3.14c-1.32-.76-2.93-.55-4.01.53l-6.83,6.83c-1.08,1.08-1.29,2.69-.53,4.01l3.14,5.43c-1.35,2.42-2.39,4.96-3.13,7.57l-6.06,1.63c-1.47.39-2.46,1.68-2.46,3.21v9.66c0,1.53.99,2.82,2.46,3.21l6.06,1.63c.74,2.61,1.78,5.15,3.13,7.57l-3.14,5.43c-.76,1.32-.55,2.93.53,4.01l6.83,6.83c1.08,1.08,2.69,1.29,4.01.52l5.43-3.13h0ZM84.72,84.29l13.66,13.66,23.43-23.43-13.67-13.66-23.43,23.43ZM108.07,68.61c.41-.41,1.06-.41,1.47,0,.41.4.41,1.06,0,1.47l-15.6,15.6c-.41.4-1.06.4-1.47,0-.41-.41-.41-1.06,0-1.47l15.6-15.6ZM112.6,73.13c.4-.4,1.06-.4,1.47,0,.41.41.41,1.06,0,1.47l-15.6,15.6c-.41.41-1.06.41-1.47,0s-.4-1.06,0-1.47l15.6-15.6ZM82.98,99.7l12.77-1.45-11.33-11.33-1.45,12.78h0ZM77.08,105.6c-7.64-7.64-7.64-20.03,0-27.67,4.53-4.52,10.72-6.37,16.6-5.53l-10.94,10.94-2.12,18.73,18.73-2.12,10.94-10.94c.83,5.89-1.01,12.08-5.53,16.6-7.64,7.64-20.03,7.64-27.67,0h0ZM122.89,72.66l2.06-3.57c.77-1.32.55-2.93-.52-4.01l-6.83-6.83c-1.08-1.08-2.69-1.29-4.01-.53l-3.57,2.06,12.88,12.88h0Z"/>
    </g>
  </g>
</svg>