<?xml version="1.0" encoding="UTF-8"?>
<svg xmlns="http://www.w3.org/2000/svg" viewBox="0 0 180 180">
  <defs>
    <style>
      .cls-1 {
        fill: #999;
      }

      .cls-1, .cls-2, .cls-3, .cls-4, .cls-5, .cls-6, .cls-7, .cls-8, .cls-9, .cls-10, .cls-11, .cls-12, .cls-13, .cls-14, .cls-15, .cls-16, .cls-17, .cls-18, .cls-19, .cls-20, .cls-21, .cls-22, .cls-23, .cls-24, .cls-25, .cls-26, .cls-27, .cls-28, .cls-29, .cls-30, .cls-31, .cls-32, .cls-33, .cls-34, .cls-35, .cls-36, .cls-37, .cls-38, .cls-39, .cls-40, .cls-41, .cls-42, .cls-43, .cls-44, .cls-45, .cls-46, .cls-47, .cls-48, .cls-49, .cls-50, .cls-51, .cls-52, .cls-53, .cls-54, .cls-55, .cls-56, .cls-57, .cls-58, .cls-59, .cls-60, .cls-61, .cls-62, .cls-63, .cls-64, .cls-65, .cls-66, .cls-67, .cls-68, .cls-69, .cls-70, .cls-71, .cls-72, .cls-73, .cls-74, .cls-75, .cls-76, .cls-77, .cls-78, .cls-79, .cls-80, .cls-81, .cls-82, .cls-83, .cls-84, .cls-85, .cls-86, .cls-87, .cls-88, .cls-89, .cls-90, .cls-91, .cls-92, .cls-93, .cls-94, .cls-95, .cls-96, .cls-97, .cls-98, .cls-99, .cls-100, .cls-101, .cls-102, .cls-103, .cls-104 {
        stroke-width: 0px;
      }

      .cls-2 {
        fill: #a3a3a3;
      }

      .cls-3 {
        fill: #e4e4e4;
      }

      .cls-4 {
        fill: #bdbdbd;
      }

      .cls-5 {
        fill: #b6b6b6;
      }

      .cls-6 {
        fill: #c1c1c1;
      }

      .cls-7 {
        fill: #45a049;
      }

      .cls-8 {
        fill: #fefefe;
      }

      .cls-9 {
        fill: #cdcdcd;
      }

      .cls-10 {
        fill: #dcdcdc;
      }

      .cls-11 {
        fill: #b2b2b2;
      }

      .cls-12 {
        fill: #f3f3f3;
      }

      .cls-13 {
        fill: #c8c8c8;
      }

      .cls-14 {
        fill: #e1e1e1;
      }

      .cls-15 {
        fill: #bababa;
      }

      .cls-16 {
        fill: #ececec;
      }

      .cls-17 {
        fill: #e6e6e6;
      }

      .cls-105 {
        isolation: isolate;
      }

      .cls-18 {
        fill: #e5e5e5;
      }

      .cls-19 {
        fill: #f7f7f7;
      }

      .cls-20 {
        fill: #e3e3e3;
      }

      .cls-21 {
        fill: #e0e0e0;
      }

      .cls-22 {
        fill: #9c9c9c;
      }

      .cls-23 {
        fill: #c2c2c2;
      }

      .cls-24 {
        fill: #9e9e9e;
      }

      .cls-25 {
        fill: #a7a7a7;
      }

      .cls-26 {
        fill: #c4c4c4;
      }

      .cls-27 {
        fill: #bbb;
      }

      .cls-28 {
        fill: #f5f5f5;
      }

      .cls-29 {
        fill: #b7b7b7;
      }

      .cls-30 {
        fill: #f0f0f0;
      }

      .cls-31 {
        fill: #dfdfdf;
      }

      .cls-32 {
        fill: #b8b8b8;
      }

      .cls-33 {
        fill: #9b9b9b;
      }

      .cls-34 {
        fill: #aeaeae;
      }

      .cls-35 {
        fill: #e9e9e9;
      }

      .cls-36 {
        fill: #ddd;
      }

      .cls-37 {
        fill: #c7c7c7;
      }

      .cls-38 {
        fill: #b3b3b3;
      }

      .cls-39 {
        fill: #b9b9b9;
      }

      .cls-40 {
        fill: #bfbfbf;
      }

      .cls-41 {
        fill: #d2d2d2;
      }

      .cls-42 {
        fill: #e7e7e7;
      }

      .cls-43 {
        fill: #ccc;
      }

      .cls-44 {
        fill: #bebebe;
      }

      .cls-45 {
        fill: #dadada;
      }

      .cls-46 {
        fill: #f6f6f6;
      }

      .cls-47 {
        fill: #a1a1a1;
      }

      .cls-48 {
        fill: #fff;
      }

      .cls-49 {
        fill: #d4d4d4;
      }

      .cls-50 {
        fill: #ededed;
      }

      .cls-51 {
        fill: #a0a0a0;
      }

      .cls-52 {
        fill: #9f9f9f;
      }

      .cls-53 {
        fill: #f8f8f8;
      }

      .cls-54 {
        fill: #9d9d9d;
      }

      .cls-55 {
        fill: #b1b1b1;
      }

      .cls-56 {
        fill: #d5d5d5;
      }

      .cls-57 {
        fill: #b0b0b0;
      }

      .cls-58 {
        fill: #dedede;
      }

      .cls-59 {
        fill: #fafafa;
      }

      .cls-60 {
        fill: #e2e2e2;
      }

      .cls-61 {
        fill: #d3d3d3;
      }

      .cls-62 {
        fill: #a2a2a2;
      }

      .cls-63 {
        fill: #eee;
      }

      .cls-64 {
        fill: #cbcbcb;
      }

      .cls-65 {
        fill: #bcbcbc;
      }

      .cls-66 {
        fill: #d1d1d1;
      }

      .cls-67 {
        fill: #b5b5b5;
      }

      .cls-68 {
        fill: #c3c3c3;
      }

      .cls-69 {
        fill: #d9d9d9;
      }

      .cls-70 {
        fill: #a5a5a5;
      }

      .cls-71 {
        fill: #a8a8a8;
      }

      .cls-72 {
        fill: #f4f4f4;
      }

      .cls-73 {
        fill: #a6a6a6;
      }

      .cls-74 {
        fill: #acacac;
      }

      .cls-75 {
        fill: #9a9a9a;
      }

      .cls-76 {
        fill: silver;
      }

      .cls-77 {
        fill: #dbdbdb;
      }

      .cls-78 {
        fill: #f1f1f1;
      }

      .cls-79 {
        fill: #ebebeb;
      }

      .cls-80 {
        fill: #c6c6c6;
      }

      .cls-81 {
        fill: #c5c5c5;
      }

      .cls-82 {
        fill: #d7d7d7;
      }

      .cls-83 {
        fill: #d0d0d0;
      }

      .cls-84 {
        fill: #a9a9a9;
      }

      .cls-85 {
        fill: #f9f9f9;
      }

      .cls-86 {
        fill: #d6d6d6;
      }

      .cls-87 {
        fill: #fbfbfb;
      }

      .cls-88 {
        fill: #cfcfcf;
      }

      .cls-89 {
        fill: #e8e8e8;
      }

      .cls-90 {
        fill: #c9c9c9;
      }

      .cls-91 {
        fill: #fdfdfd;
      }

      .cls-92 {
        fill: #cacaca;
      }

      .cls-93 {
        fill: #b4b4b4;
      }

      .cls-94 {
        fill: #afafaf;
      }

      .cls-95 {
        fill: #ababab;
      }

      .cls-96 {
        fill: #eaeaea;
      }

      .cls-97 {
        fill: #fcfcfc;
      }

      .cls-106 {
        mix-blend-mode: multiply;
      }

      .cls-98 {
        fill: #cecece;
      }

      .cls-99 {
        fill: #f2f2f2;
      }

      .cls-100 {
        fill: #aaa;
      }

      .cls-101 {
        fill: #d8d8d8;
      }

      .cls-102 {
        fill: #efefef;
      }

      .cls-103 {
        fill: #a4a4a4;
      }

      .cls-104 {
        fill: #adadad;
      }
    </style>
  </defs>
  <g class="cls-105">
    <g id="Layer_1" data-name="Layer 1">
      <path class="cls-1" d="M90,164.15c-41.2,0-74.71-33.52-74.71-74.71S48.8,14.72,90,14.72s74.71,33.52,74.71,74.71-33.52,74.71-74.71,74.71ZM90,15.81c-40.59,0-73.62,33.03-73.62,73.62s33.03,73.62,73.62,73.62,73.62-33.03,73.62-73.62S130.59,15.81,90,15.81Z"/>
      <path class="cls-43" d="M90,175.27c-22.93,0-44.48-8.93-60.7-25.14-16.21-16.21-25.14-37.77-25.14-60.7S13.09,44.95,29.3,28.73C45.52,12.52,67.07,3.59,90,3.59s44.48,8.93,60.7,25.14c16.21,16.21,25.14,37.77,25.14,60.7s-8.93,44.48-25.14,60.7c-16.21,16.21-37.77,25.14-60.7,25.14ZM90,4.69C43.27,4.69,5.26,42.7,5.26,89.43s38.02,84.74,84.74,84.74,84.74-38.02,84.74-84.74S136.73,4.69,90,4.69Z"/>
      <g class="cls-106">
        <circle class="cls-48" cx="97.39" cy="96.7" r="58.68"/>
        <circle class="cls-8" cx="97.32" cy="96.63" r="58.66"/>
        <circle class="cls-91" cx="97.25" cy="96.56" r="58.64"/>
        <circle class="cls-97" cx="97.18" cy="96.49" r="58.62"/>
        <circle class="cls-87" cx="97.11" cy="96.42" r="58.61"/>
        <circle class="cls-59" cx="97.04" cy="96.35" r="58.59"/>
        <circle class="cls-85" cx="96.97" cy="96.28" r="58.57"/>
        <circle class="cls-53" cx="96.9" cy="96.21" r="58.55"/>
        <circle class="cls-19" cx="96.83" cy="96.14" r="58.53"/>
        <circle class="cls-46" cx="96.76" cy="96.07" r="58.51"/>
        <circle class="cls-28" cx="96.69" cy="96" r="58.49"/>
        <circle class="cls-72" cx="96.62" cy="95.93" r="58.48"/>
        <circle class="cls-12" cx="96.55" cy="95.86" r="58.46"/>
        <circle class="cls-99" cx="96.48" cy="95.79" r="58.44"/>
        <circle class="cls-78" cx="96.41" cy="95.72" r="58.42"/>
        <circle class="cls-30" cx="96.34" cy="95.65" r="58.4"/>
        <circle class="cls-102" cx="96.27" cy="95.58" r="58.38"/>
        <circle class="cls-63" cx="96.2" cy="95.51" r="58.36"/>
        <circle class="cls-50" cx="96.13" cy="95.43" r="58.35"/>
        <circle class="cls-16" cx="96.06" cy="95.36" r="58.33"/>
        <circle class="cls-79" cx="95.99" cy="95.29" r="58.31"/>
        <circle class="cls-96" cx="95.92" cy="95.22" r="58.29"/>
        <circle class="cls-35" cx="95.85" cy="95.15" r="58.27"/>
        <circle class="cls-89" cx="95.77" cy="95.08" r="58.25"/>
        <circle class="cls-42" cx="95.7" cy="95.01" r="58.23"/>
        <circle class="cls-17" cx="95.63" cy="94.94" r="58.22"/>
        <circle class="cls-18" cx="95.56" cy="94.87" r="58.2"/>
        <circle class="cls-3" cx="95.49" cy="94.8" r="58.18"/>
        <circle class="cls-20" cx="95.42" cy="94.73" r="58.16"/>
        <circle class="cls-60" cx="95.35" cy="94.66" r="58.14"/>
        <circle class="cls-14" cx="95.28" cy="94.59" r="58.12"/>
        <circle class="cls-21" cx="95.21" cy="94.52" r="58.11"/>
        <circle class="cls-31" cx="95.14" cy="94.45" r="58.09"/>
        <circle class="cls-58" cx="95.07" cy="94.38" r="58.07"/>
        <circle class="cls-36" cx="95" cy="94.31" r="58.05"/>
        <circle class="cls-10" cx="94.93" cy="94.24" r="58.03"/>
        <circle class="cls-77" cx="94.86" cy="94.17" r="58.01"/>
        <circle class="cls-45" cx="94.79" cy="94.1" r="57.99"/>
        <circle class="cls-69" cx="94.72" cy="94.03" r="57.98"/>
        <circle class="cls-101" cx="94.65" cy="93.96" r="57.96"/>
        <circle class="cls-82" cx="94.58" cy="93.89" r="57.94"/>
        <circle class="cls-86" cx="94.51" cy="93.82" r="57.92"/>
        <circle class="cls-56" cx="94.44" cy="93.75" r="57.9"/>
        <circle class="cls-49" cx="94.37" cy="93.68" r="57.88"/>
        <circle class="cls-61" cx="94.3" cy="93.61" r="57.86"/>
        <circle class="cls-41" cx="94.23" cy="93.54" r="57.85"/>
        <circle class="cls-66" cx="94.16" cy="93.47" r="57.83"/>
        <circle class="cls-83" cx="94.09" cy="93.4" r="57.81"/>
        <circle class="cls-88" cx="94.02" cy="93.33" r="57.79"/>
        <circle class="cls-98" cx="93.95" cy="93.26" r="57.77"/>
        <circle class="cls-9" cx="93.88" cy="93.19" r="57.75"/>
        <circle class="cls-43" cx="93.81" cy="93.12" r="57.73"/>
        <circle class="cls-43" cx="93.74" cy="93.05" r="57.72"/>
        <circle class="cls-64" cx="93.67" cy="92.98" r="57.7"/>
        <circle class="cls-92" cx="93.6" cy="92.91" r="57.68"/>
        <circle class="cls-90" cx="93.53" cy="92.84" r="57.66"/>
        <circle class="cls-13" cx="93.46" cy="92.77" r="57.64"/>
        <circle class="cls-37" cx="93.39" cy="92.7" r="57.62"/>
        <circle class="cls-80" cx="93.32" cy="92.63" r="57.61"/>
        <circle class="cls-81" cx="93.25" cy="92.56" r="57.59"/>
        <circle class="cls-26" cx="93.18" cy="92.49" r="57.57"/>
        <circle class="cls-68" cx="93.11" cy="92.42" r="57.55"/>
        <circle class="cls-23" cx="93.04" cy="92.35" r="57.53"/>
        <circle class="cls-6" cx="92.97" cy="92.28" r="57.51"/>
        <circle class="cls-76" cx="92.9" cy="92.21" r="57.49"/>
        <circle class="cls-40" cx="92.83" cy="92.14" r="57.48"/>
        <circle class="cls-44" cx="92.76" cy="92.07" r="57.46"/>
        <circle class="cls-4" cx="92.69" cy="92" r="57.44"/>
        <circle class="cls-65" cx="92.62" cy="91.93" r="57.42"/>
        <circle class="cls-27" cx="92.55" cy="91.86" r="57.4"/>
        <circle class="cls-15" cx="92.48" cy="91.79" r="57.38"/>
        <circle class="cls-39" cx="92.41" cy="91.72" r="57.36"/>
        <circle class="cls-32" cx="92.34" cy="91.65" r="57.35"/>
        <circle class="cls-29" cx="92.27" cy="91.58" r="57.33"/>
        <circle class="cls-5" cx="92.2" cy="91.51" r="57.31"/>
        <circle class="cls-67" cx="92.13" cy="91.44" r="57.29"/>
        <circle class="cls-93" cx="92.06" cy="91.37" r="57.27"/>
        <circle class="cls-38" cx="91.99" cy="91.3" r="57.25"/>
        <circle class="cls-11" cx="91.92" cy="91.23" r="57.23"/>
        <circle class="cls-55" cx="91.85" cy="91.16" r="57.22"/>
        <circle class="cls-57" cx="91.78" cy="91.08" r="57.2"/>
        <circle class="cls-94" cx="91.71" cy="91.01" r="57.18"/>
        <circle class="cls-34" cx="91.64" cy="90.94" r="57.16"/>
        <circle class="cls-104" cx="91.57" cy="90.87" r="57.14"/>
        <circle class="cls-74" cx="91.5" cy="90.8" r="57.12"/>
        <circle class="cls-95" cx="91.42" cy="90.73" r="57.11"/>
        <circle class="cls-100" cx="91.35" cy="90.66" r="57.09"/>
        <circle class="cls-84" cx="91.28" cy="90.59" r="57.07"/>
        <circle class="cls-71" cx="91.21" cy="90.52" r="57.05"/>
        <circle class="cls-25" cx="91.14" cy="90.45" r="57.03"/>
        <circle class="cls-73" cx="91.07" cy="90.38" r="57.01"/>
        <circle class="cls-70" cx="91" cy="90.31" r="56.99"/>
        <circle class="cls-103" cx="90.93" cy="90.24" r="56.98"/>
        <circle class="cls-2" cx="90.86" cy="90.17" r="56.96"/>
        <circle class="cls-62" cx="90.79" cy="90.1" r="56.94"/>
        <circle class="cls-47" cx="90.72" cy="90.03" r="56.92"/>
        <circle class="cls-51" cx="90.65" cy="89.96" r="56.9"/>
        <circle class="cls-52" cx="90.58" cy="89.89" r="56.88"/>
        <circle class="cls-24" cx="90.51" cy="89.82" r="56.86"/>
        <circle class="cls-54" cx="90.44" cy="89.75" r="56.85"/>
        <circle class="cls-22" cx="90.37" cy="89.68" r="56.83"/>
        <circle class="cls-33" cx="90.3" cy="89.61" r="56.81"/>
        <circle class="cls-75" cx="90.23" cy="89.54" r="56.79"/>
        <circle class="cls-1" cx="90.16" cy="89.47" r="56.77"/>
      </g>
      <circle class="cls-7" cx="90.12" cy="89.43" r="59.33"/>
      <circle class="cls-7" cx="90.12" cy="89.43" r="48.04"/>
      <g>
        <rect class="cls-48" x="80.07" y="94.54" width="4.1" height="2.24"/>
        <rect class="cls-48" x="80.07" y="100.14" width="4.1" height="2.24"/>
        <rect class="cls-48" x="94.25" y="94.54" width="4.1" height="2.24"/>
        <rect class="cls-48" x="94.25" y="100.14" width="4.1" height="2.24"/>
        <rect class="cls-48" x="85.49" y="94.54" width="7.44" height="2.24"/>
        <rect class="cls-48" x="85.49" y="100.14" width="7.44" height="2.24"/>
        <path class="cls-48" d="M57.72,94.59c1.25,2.95,4.66,4.32,7.61,3.07,1.37-.58,2.4-1.64,2.98-2.89l3.89,2.6c.66-1.18,1.07-2.49,1.23-3.84l-4.61-.58c.11-.96-.02-1.95-.43-2.9-1.25-2.95-4.66-4.32-7.61-3.07-1.35.57-2.37,1.6-2.95,2.83l-3.9-2.57c-.68,1.22-1.11,2.57-1.26,3.97l4.63.43c-.11.98,0,1.99.42,2.96ZM62.19,90.29c1.13-.48,2.43.05,2.9,1.17.48,1.13-.04,2.43-1.17,2.9-1.13.48-2.43-.04-2.9-1.17-.48-1.13.05-2.42,1.17-2.9Z"/>
        <path class="cls-48" d="M112.36,102.36l.91-4.59c1.3.47,2.77.49,4.15-.06,2.97-1.2,4.41-4.58,3.21-7.55-.39-.98-1.02-1.78-1.79-2.39l2.97-3.57c-1.09-.88-2.36-1.53-3.7-1.92l-.94,4.58c-1.28-.45-2.73-.46-4.09.09-2.97,1.2-4.41,4.58-3.2,7.55.39.96.99,1.75,1.75,2.35l-2.85,3.67c1.07.84,2.29,1.47,3.59,1.84ZM114.43,90.27c1.13-.46,2.43.09,2.88,1.22.46,1.14-.09,2.43-1.22,2.89-1.14.46-2.42-.09-2.88-1.23-.46-1.14.09-2.43,1.23-2.88Z"/>
        <path class="cls-48" d="M44.23,111.23h88.53c2.89,0,5.24-2.34,5.24-5.24v-29.99c0-2.89-2.34-5.24-5.24-5.24H44.23c-2.89,0-5.24,2.34-5.24,5.24v30c0,2.89,2.34,5.24,5.24,5.24ZM130.17,78.23c0-.8.65-1.45,1.44-1.45h1.45c.8,0,1.45.65,1.45,1.45v4.97h-1.45v2.44h1.45v2.53h-1.45v7.05h-.02l-4.67,9.29-2.98-2.12,6.23-7.84v-11.34h-1.44v-4.97h0ZM110.7,81.03c6.24-2.52,13.34.5,15.85,6.74,2.52,6.24-.5,13.34-6.74,15.86-6.24,2.52-13.34-.5-15.86-6.74-2.52-6.24.5-13.34,6.74-15.86ZM78.14,77.99h22.04v27.7h-22.04v-27.7ZM58.3,81.11c6.19-2.63,13.35.25,15.98,6.44,2.63,6.19-.26,13.35-6.45,15.98-6.19,2.63-13.34-.25-15.98-6.44-2.63-6.19.25-13.34,6.45-15.98ZM43.81,85.64h1.44v-2.44h-1.44v-4.97c0-.8.65-1.45,1.44-1.45h1.45c.8,0,1.44.65,1.44,1.45v4.97h-1.44v11.34l6.23,7.84-2.98,2.12-4.68-9.29h-.02v-7.05h-1.44s0-2.53,0-2.53Z"/>
      </g>
    </g>
  </g>
</svg>